<svg width="20" height="20" viewBox="0 0 20 20" fill="none" xmlns="http://www.w3.org/2000/svg">
<g id="Eye/Audio wave 2">
<g id="Vector">
<path d="M0 4C0 3.11634 0.716344 2.4 1.6 2.4C2.48366 2.4 3.2 3.11634 3.2 4V16C3.2 16.8837 2.48366 17.6 1.6 17.6C0.716344 17.6 0 16.8837 0 16V4Z" fill="#202020"/>
<path d="M5.6 6.4C5.6 5.51634 6.31634 4.8 7.2 4.8C8.08366 4.8 8.8 5.51634 8.8 6.4V13.6C8.8 14.4837 8.08366 15.2 7.2 15.2C6.31634 15.2 5.6 14.4837 5.6 13.6V6.4Z" fill="#202020"/>
<path d="M11.2 1.6C11.2 0.716344 11.9163 0 12.8 0C13.6837 0 14.4 0.716344 14.4 1.6V18.4C14.4 19.2837 13.6837 20 12.8 20C11.9163 20 11.2 19.2837 11.2 18.4V1.6Z" fill="#202020"/>
<path d="M16.8 7.2C16.8 6.31634 17.5163 5.6 18.4 5.6C19.2837 5.6 20 6.31634 20 7.2V12.8C20 13.6837 19.2837 14.4 18.4 14.4C17.5163 14.4 16.8 13.6837 16.8 12.8V7.2Z" fill="#202020"/>
</g>
</g>
</svg>
