<svg width="24" height="24" viewBox="0 0 24 24" fill="none" xmlns="http://www.w3.org/2000/svg">
<g id="Audio wave">
<path id="Subtract" fill-rule="evenodd" clip-rule="evenodd" d="M12 24C18.6274 24 24 18.6274 24 12C24 5.37258 18.6274 0 12 0C5.37258 0 0 5.37258 0 12C0 18.6274 5.37258 24 12 24ZM10.88 5.76C10.88 5.14144 11.3814 4.64 12 4.64C12.6186 4.64 13.12 5.14144 13.12 5.76V18.24C13.12 18.8586 12.6186 19.36 12 19.36C11.3814 19.36 10.88 18.8586 10.88 18.24V5.76ZM6.08 8.32C6.08 7.70144 6.58144 7.2 7.2 7.2C7.81856 7.2 8.32 7.70144 8.32 8.32V15.68C8.32 16.2986 7.81856 16.8 7.2 16.8C6.58144 16.8 6.08 16.2986 6.08 15.68V8.32ZM16.8 7.2C16.1814 7.2 15.68 7.70144 15.68 8.32V15.68C15.68 16.2986 16.1814 16.8 16.8 16.8C17.4186 16.8 17.92 16.2986 17.92 15.68V8.32C17.92 7.70144 17.4186 7.2 16.8 7.2Z" fill="#A1A1A1"/>
</g>
</svg>
