<svg width="24" height="24" viewBox="0 0 24 24" fill="none" xmlns="http://www.w3.org/2000/svg">
<g id="Aactive=True">
<path id="Vector" d="M20.4 0H3.6C1.62 0 0 1.62 0 3.6V20.4C0 22.38 1.62 24 3.6 24H20.4C22.38 24 24 22.38 24 20.4V3.6C24 1.62 22.38 0 20.4 0ZM17.352 9.852L11.352 15.852C11.112 16.08 10.812 16.2 10.5 16.2C10.188 16.2 9.888 16.08 9.648 15.852L6.648 12.852C6.18 12.384 6.18 11.616 6.648 11.148C7.116 10.68 7.884 10.68 8.352 11.148L10.5 13.308L15.648 8.148C16.116 7.68 16.884 7.68 17.352 8.148C17.82 8.616 17.82 9.384 17.352 9.852Z" fill="#2D71AE"/>
</g>
</svg>
