<svg width="24" height="25" viewBox="0 0 24 25" fill="none" xmlns="http://www.w3.org/2000/svg">
<g id="Aactive=False">
<path id="Vector" d="M20.4 24.667H3.6C1.6152 24.667 0 23.0518 0 21.067V4.26699C0 2.28219 1.6152 0.666992 3.6 0.666992H20.4C22.3848 0.666992 24 2.28219 24 4.26699V21.067C24 23.0518 22.3848 24.667 20.4 24.667ZM3.6 3.06699C2.9376 3.06699 2.4 3.60579 2.4 4.26699V21.067C2.4 21.7282 2.9376 22.267 3.6 22.267H20.4C21.0624 22.267 21.6 21.7282 21.6 21.067V4.26699C21.6 3.60579 21.0624 3.06699 20.4 3.06699H3.6Z" fill="#2D71AE"/>
</g>
</svg>
