<svg width="15" height="14" viewBox="0 0 15 14" fill="none" xmlns="http://www.w3.org/2000/svg">
<g id="Chevron">
<path id="Vector" d="M4.42748 12.5092L9.9367 7L4.42748 1.49075C4.26494 1.32623 4.17411 1.10408 4.17481 0.872812C4.17551 0.641545 4.26769 0.419951 4.43122 0.256419C4.59476 0.0928878 4.81635 0.000706061 5.04762 4.03912e-06C5.27888 -0.000697983 5.50103 0.0901367 5.66556 0.252672L11.7938 6.38096C11.958 6.54514 12.0503 6.76782 12.0503 7C12.0503 7.23218 11.958 7.45486 11.7938 7.61904L5.66556 13.7473C5.50103 13.9099 5.27888 14.0007 5.04762 14C4.81635 13.9993 4.59476 13.9071 4.43122 13.7436C4.26769 13.5801 4.17551 13.3585 4.17481 13.1272C4.17411 12.8959 4.26494 12.6738 4.42748 12.5092Z" fill="white"/>
</g>
</svg>
