<svg width="20" height="20" viewBox="0 0 20 20" fill="none" xmlns="http://www.w3.org/2000/svg">
<g id="Chevron">
<path id="Vector" d="M5.61096 17.8704L13.4813 10L5.61096 2.12964C5.37877 1.89461 5.249 1.57726 5.25001 1.24687C5.25101 0.916493 5.3827 0.599929 5.61631 0.366313C5.84993 0.132697 6.16649 0.00100866 6.49687 5.77018e-06C6.82726 -0.000997118 7.14461 0.128767 7.37964 0.36096L16.1343 9.11566C16.3689 9.3502 16.5006 9.66831 16.5006 10C16.5006 10.3317 16.3689 10.6498 16.1343 10.8843L7.37964 19.639C7.14461 19.8712 6.82726 20.001 6.49687 20C6.16649 19.999 5.84993 19.8673 5.61631 19.6337C5.3827 19.4001 5.25101 19.0835 5.25001 18.7531C5.249 18.4227 5.37877 18.1054 5.61096 17.8704Z" fill="#202020"/>
</g>
</svg>
