<svg width="46" height="19" viewBox="0 0 46 19" fill="none" xmlns="http://www.w3.org/2000/svg">
<g id="Click" opacity="0.9" clip-path="url(#clip0_837_1456)">
<g id="Group 71">
<path id="Vector" d="M24.4623 13.5182C24.064 13.5182 23.6967 13.4571 23.3595 13.3344C23.0229 13.2116 22.7467 13.0282 22.5017 12.8138C22.2567 12.5688 22.0729 12.2932 21.9195 11.9255C21.7967 11.5577 21.7051 11.1599 21.7051 10.6694V10.4549C21.7051 9.99546 21.7662 9.62769 21.9195 9.26046C22.0729 8.9238 22.2562 8.64769 22.5017 8.40269C22.7467 8.15769 23.0529 8.00435 23.3595 7.88213C23.6962 7.75935 24.0334 7.69824 24.4012 7.69824C24.7995 7.69824 25.1362 7.75935 25.4429 7.85158C25.7495 7.9438 25.994 8.09658 26.2084 8.28046C26.4229 8.46435 26.5762 8.6788 26.6984 8.9238C26.8206 9.1688 26.8823 9.44435 26.9434 9.71991H25.5345C25.4429 9.47491 25.3201 9.26046 25.1667 9.10713C25.0134 8.9538 24.7684 8.89269 24.4317 8.89269C24.2479 8.89269 24.0951 8.92324 23.9112 8.98435C23.7579 9.04546 23.6051 9.13769 23.4823 9.25991C23.3595 9.38213 23.2679 9.56602 23.2067 9.74991C23.1456 9.9338 23.1151 10.1788 23.1151 10.4544V10.6688C23.1151 10.9749 23.1456 11.2199 23.2067 11.4344C23.2679 11.6488 23.3601 11.8327 23.4823 11.9549C23.6051 12.0777 23.7273 12.1999 23.9112 12.261C24.0645 12.3221 24.2479 12.3527 24.4317 12.3527C24.7073 12.3527 24.9523 12.2916 25.1362 12.1382C25.3201 11.9849 25.4729 11.8016 25.5345 11.5255H26.9434C26.9129 11.8316 26.8206 12.1077 26.6984 12.3527C26.5762 12.5977 26.3923 12.8121 26.1779 12.996C25.9634 13.1799 25.7184 13.3021 25.4123 13.3944C25.1673 13.486 24.8301 13.5171 24.4629 13.5171L24.4623 13.5182Z" fill="black"/>
<path id="Vector_2" d="M29.8231 13.4566C29.4865 13.4566 29.2104 13.4261 28.9959 13.3649C28.7509 13.3038 28.567 13.2116 28.4137 13.0588C28.2604 12.9061 28.1381 12.7222 28.077 12.4461C28.0159 12.2011 27.9854 11.8949 27.9854 11.4966V6.04384H29.3637V11.3427C29.3637 11.5266 29.3637 11.6794 29.3942 11.7716C29.4248 11.8944 29.4554 11.9861 29.517 12.0472C29.5781 12.1083 29.6398 12.1699 29.762 12.2005C29.8537 12.2311 29.9765 12.2616 30.1298 12.2616H30.3442C30.4054 12.2616 30.467 12.2616 30.4976 12.2311V13.3949C30.467 13.3949 30.4059 13.3949 30.3442 13.4255C30.2831 13.4255 30.2215 13.4255 30.1909 13.4561H29.8231V13.4566Z" fill="black"/>
<path id="Vector_3" d="M31.5075 7.82036H32.8859V13.3948H31.5075V7.82036ZM32.212 7.23814C31.967 7.23814 31.7525 7.17703 31.5992 7.0237C31.4459 6.87036 31.3848 6.68703 31.3848 6.47259C31.3848 6.25814 31.4459 6.07425 31.5992 5.92148C31.7525 5.7687 31.967 5.70703 32.212 5.70703C32.457 5.70703 32.6714 5.76814 32.8248 5.92148C32.9781 6.07481 33.0392 6.25814 33.0392 6.47259C33.0392 6.68703 32.9781 6.87092 32.8248 7.0237C32.6714 7.17648 32.457 7.23814 32.212 7.23814Z" fill="black"/>
<path id="Vector_4" d="M36.7152 13.5182C36.3169 13.5182 35.9497 13.4571 35.6125 13.3344C35.2758 13.2116 34.9997 13.0282 34.7547 12.8138C34.5097 12.5688 34.3258 12.2932 34.1725 11.9255C34.0497 11.5577 33.958 11.1599 33.958 10.6694V10.4549C33.958 9.99546 34.0191 9.62769 34.1725 9.26046C34.3258 8.9238 34.5091 8.64769 34.7547 8.40269C34.9997 8.15769 35.3058 8.00435 35.6125 7.88213C35.9491 7.75935 36.2863 7.69824 36.6541 7.69824C37.0525 7.69824 37.3891 7.75935 37.6958 7.85158C38.0025 7.9438 38.2469 8.09658 38.4613 8.28046C38.6758 8.46435 38.8291 8.6788 38.9513 8.9238C39.0736 9.1688 39.1352 9.44435 39.1963 9.71991H37.7875C37.6958 9.47491 37.573 9.26046 37.4197 9.10713C37.2663 8.9538 37.0213 8.89269 36.6847 8.89269C36.5008 8.89269 36.348 8.92324 36.1641 8.98435C36.0108 9.04546 35.858 9.13769 35.7352 9.25991C35.6125 9.38213 35.5208 9.56602 35.4597 9.74991C35.3986 9.9338 35.368 10.1788 35.368 10.4544V10.6688C35.368 10.9749 35.3986 11.2199 35.4597 11.4344C35.5208 11.6488 35.613 11.8327 35.7352 11.9549C35.858 12.0777 35.9802 12.1999 36.1641 12.261C36.3175 12.3221 36.5008 12.3527 36.6847 12.3527C36.9602 12.3527 37.2052 12.2916 37.3891 12.1382C37.573 11.9849 37.7258 11.8016 37.7875 11.5255H39.1963C39.1658 11.8316 39.0736 12.1077 38.9513 12.3527C38.8291 12.5977 38.6452 12.8121 38.4308 12.996C38.2163 13.1799 37.9713 13.3021 37.6652 13.3944C37.4202 13.486 37.083 13.5171 36.7158 13.5171L36.7152 13.5182Z" fill="black"/>
<path id="Vector_5" d="M40.1758 13.3949V6.04384H41.5847V10.1177L43.6063 7.82051H45.2297L43.1469 10.1788L45.4441 13.3949H43.7902L42.1974 11.1283L41.5847 11.8022V13.3949H40.1758Z" fill="black"/>
<path id="Vector_6" fill-rule="evenodd" clip-rule="evenodd" d="M4.06278 3.56278C2.01056 5.58444 1 7.51444 1 9.44389V9.47444C1 11.4039 2.01056 13.3644 4.06278 15.3861C6.08445 17.4078 8.04445 18.4183 9.97445 18.4489H10.005C11.9345 18.4489 13.895 17.4383 15.9167 15.3861C19.96 11.3428 19.9906 7.63667 15.9167 3.53222C13.8645 1.51056 11.9045 0.5 9.97445 0.5C8.04445 0.5 6.08445 1.51056 4.06278 3.56278ZM6.72778 12.6906C4.49167 10.4544 4.52222 8.43278 6.72778 6.22778C8.93334 4.02222 10.955 3.99167 13.1906 6.22778C15.4267 8.46389 15.3961 10.4856 13.1906 12.6906C12.0878 13.7933 11.0156 14.3444 9.97445 14.3444C8.90223 14.375 7.86111 13.8239 6.72778 12.6906Z" fill="url(#paint0_linear_837_1456)"/>
</g>
</g>
<defs>
<linearGradient id="paint0_linear_837_1456" x1="3.99278" y1="15.7611" x2="15.4317" y2="3.76444" gradientUnits="userSpaceOnUse">
<stop stop-color="#0078FF"/>
<stop offset="1" stop-color="#00DEFF"/>
</linearGradient>
<clipPath id="clip0_837_1456">
<rect width="45" height="18" fill="white" transform="translate(0.5 0.5)"/>
</clipPath>
</defs>
</svg>
