<svg width="25" height="24" viewBox="0 0 25 24" fill="none" xmlns="http://www.w3.org/2000/svg">
<g id="Frame" clip-path="url(#clip0_1360_1835)">
<g id="Vector">
<path fill-rule="evenodd" clip-rule="evenodd" d="M19.5002 13C19.7654 13 20.0198 13.1054 20.2073 13.2929C20.3949 13.4804 20.5002 13.7348 20.5002 14V22C20.5002 22.2652 20.3949 22.5196 20.2073 22.7071C20.0198 22.8946 19.7654 23 19.5002 23C19.235 23 18.9807 22.8946 18.7931 22.7071C18.6056 22.5196 18.5002 22.2652 18.5002 22V14C18.5002 13.7348 18.6056 13.4804 18.7931 13.2929C18.9807 13.1054 19.235 13 19.5002 13Z" fill="#2D71AE"/>
<path fill-rule="evenodd" clip-rule="evenodd" d="M14.5002 18C14.5002 17.7348 14.6056 17.4804 14.7931 17.2929C14.9807 17.1054 15.235 17 15.5002 17H23.5002C23.7655 17 24.0198 17.1054 24.2073 17.2929C24.3949 17.4804 24.5002 17.7348 24.5002 18C24.5002 18.2652 24.3949 18.5196 24.2073 18.7071C24.0198 18.8946 23.7655 19 23.5002 19H15.5002C15.235 19 14.9807 18.8946 14.7931 18.7071C14.6056 18.5196 14.5002 18.2652 14.5002 18ZM0.500233 6C0.500233 3.248 2.74823 1 5.50023 1H19.5002C22.2522 1 24.5002 3.248 24.5002 6V11C24.5002 11.2652 24.3949 11.5196 24.2073 11.7071C24.0198 11.8946 23.7655 12 23.5002 12C23.235 12 22.9807 11.8946 22.7931 11.7071C22.6056 11.5196 22.5002 11.2652 22.5002 11V6C22.5002 4.352 21.1482 3 19.5002 3H5.50023C3.85223 3 2.50023 4.352 2.50023 6V20.6C2.50023 20.848 2.65223 21 2.90023 21C2.96028 21.0039 3.02055 20.9972 3.07823 20.98C3.12238 20.9596 3.1616 20.9299 3.19323 20.893L5.59323 18.493C6.57423 17.51 7.82623 17 9.10023 17H10.5002C10.7655 17 11.0198 17.1054 11.2073 17.2929C11.3949 17.4804 11.5002 17.7348 11.5002 18C11.5002 18.2652 11.3949 18.5196 11.2073 18.7071C11.0198 18.8946 10.7655 19 10.5002 19H9.10023C8.37423 19 7.62623 19.289 7.00723 19.907L4.60723 22.307C4.37848 22.542 4.10238 22.7258 3.79723 22.846C3.5104 22.9526 3.2062 23.0048 2.90023 23C2.58383 23.0044 2.26975 22.9454 1.97656 22.8264C1.68337 22.7073 1.41703 22.5307 1.19328 22.307C0.969527 22.0832 0.79291 21.8169 0.673872 21.5237C0.554834 21.2305 0.495791 20.9164 0.500233 20.6V6Z" fill="#2D71AE"/>
</g>
</g>
<defs>
<clipPath id="clip0_1360_1835">
<rect width="24" height="24" fill="white" transform="translate(0.5)"/>
</clipPath>
</defs>
</svg>
