<svg width="124" height="154" viewBox="0 0 124 154" fill="none" xmlns="http://www.w3.org/2000/svg">
<path id="Vector" d="M74.9023 103.438L73.9007 103.07L73.6158 104.175L62.6434 146.745C61.8813 149.701 60.6661 151.487 59.1742 152.342C58.1476 152.93 56.8048 153.141 55.3809 152.549C53.9478 151.953 52.3367 150.501 50.91 147.569L3.12747 49.3739C-0.124542 42.6909 2.03617 34.6975 7.67297 31.4671L56.7564 3.33797C62.3932 0.107586 69.6944 2.67836 72.9465 9.36139L120.729 107.556C121.745 109.645 122.194 111.508 122.145 113.108L123.116 113.102L122.145 113.108C122.081 115.212 121.157 116.821 119.701 117.655L119.701 117.655C119.701 117.655 119.701 117.655 119.701 117.655C118.208 118.51 116.163 118.592 113.485 117.608L74.9023 103.438Z" stroke="url(#paint0_linear_352_5511)" stroke-width="2"/>
<defs>
<linearGradient id="paint0_linear_352_5511" x1="31.7771" y1="16.5034" x2="97.6479" y2="131.443" gradientUnits="userSpaceOnUse">
<stop stop-color="#D7E7F8" stop-opacity="0.7"/>
<stop offset="1" stop-color="#2D71AE" stop-opacity="0"/>
</linearGradient>
</defs>
</svg>
