<svg width="149" height="161" viewBox="0 0 149 161" fill="none" xmlns="http://www.w3.org/2000/svg">
<path id="Star 4" d="M144.891 46.7195C147.017 46.2329 148.276 49.0153 146.508 50.291L104.498 80.597C102.547 82.0041 102.271 84.8018 103.908 86.5637L139.166 124.513C140.65 126.11 138.87 128.592 136.881 127.698L89.6305 106.47C87.4368 105.484 84.8755 106.643 84.1682 108.942L68.9325 158.451C68.2912 160.535 65.2518 160.235 65.0312 158.065L59.7904 106.531C59.547 104.138 57.2625 102.499 54.9182 103.036L4.42413 114.596C2.29866 115.083 1.03935 112.3 2.8077 111.025L44.8176 80.7187C46.768 79.3116 47.0448 76.514 45.4078 74.7521L10.1494 36.803C8.66528 35.2055 10.4453 32.7237 12.4343 33.6173L59.685 54.8459C61.8788 55.8315 64.44 54.6724 65.1474 52.3738L80.3831 2.86455C81.0244 0.780525 84.0637 1.08117 84.2843 3.25045L89.5252 54.7851C89.7685 57.1778 92.053 58.8163 94.3973 58.2796L144.891 46.7195Z" stroke="url(#paint0_linear_352_5510)" stroke-width="2"/>
<defs>
<linearGradient id="paint0_linear_352_5510" x1="154.849" y1="45.5993" x2="7.12639" y2="116.407" gradientUnits="userSpaceOnUse">
<stop stop-color="#D7E7F8" stop-opacity="0.8"/>
<stop offset="1" stop-color="#2D71AE" stop-opacity="0"/>
</linearGradient>
</defs>
</svg>
