<svg width="15" height="15" viewBox="0 0 15 15" fill="none" xmlns="http://www.w3.org/2000/svg">
<g id="Exit">
<path id="Vector" d="M4.16669 2.26583e-05C4.40002 2.26583e-05 4.59586 0.0833561 4.75169 0.248356C4.83233 0.322576 4.8962 0.413156 4.93903 0.514041C4.98185 0.614925 5.00265 0.723789 5.00002 0.833356C5.00079 0.942658 4.97915 1.05096 4.93644 1.15157C4.89373 1.25219 4.83085 1.34298 4.75169 1.41836C4.67747 1.499 4.58689 1.56287 4.486 1.60569C4.38512 1.64852 4.27626 1.66931 4.16669 1.66669H3.33336C3.00169 1.66669 2.70919 1.73502 2.45586 1.87169C2.20252 1.99836 2.00752 2.18836 1.87169 2.44169C1.73502 2.69502 1.66669 2.99169 1.66669 3.33336V11.6667C1.66669 11.9984 1.73502 12.2909 1.87169 12.5442C2.00752 12.7975 2.20252 12.9925 2.45586 13.1284C2.70919 13.265 3.00169 13.3334 3.33336 13.3334H4.16669C4.40002 13.3334 4.59586 13.4167 4.75169 13.5817C4.83233 13.6559 4.8962 13.7465 4.93903 13.8474C4.98185 13.9483 5.00265 14.0571 5.00002 14.1667C5.00079 14.276 4.97915 14.3843 4.93644 14.4849C4.89373 14.5855 4.83085 14.6763 4.75169 14.7517C4.67747 14.8323 4.58689 14.8962 4.486 14.939C4.38512 14.9819 4.27626 15.0026 4.16669 15H3.33336C2.73919 15 2.18336 14.8492 1.66669 14.5467C1.16638 14.2511 0.74899 13.8337 0.453356 13.3334C0.15449 12.8289 -0.00216774 12.253 2.26583e-05 11.6667V3.33336C2.26583e-05 2.72919 0.150856 2.17336 0.453356 1.66669C0.743513 1.16216 1.16216 0.743513 1.66669 0.453356C2.1711 0.15449 2.74705 -0.00216774 3.33336 2.26583e-05H4.16669ZM11.4184 11.4184C11.2717 11.5842 11.0767 11.6667 10.8334 11.6667C10.7241 11.6675 10.6158 11.6458 10.5151 11.6031C10.4145 11.5604 10.3237 11.4975 10.2484 11.4184C10.1692 11.343 10.1063 11.2522 10.0636 11.1516C10.0209 11.051 9.99926 10.9427 10 10.8334C10 10.59 10.0834 10.395 10.2484 10.2484L13.4942 7.00252C13.5425 6.95419 13.5775 7.02752 13.5967 7.22252C13.6159 7.40752 13.6159 7.59752 13.5967 7.79252C13.5767 7.97752 13.5434 8.04586 13.4942 7.99669L10.2484 4.75169C10.0834 4.59586 10 4.40002 10 4.16669C10 3.93336 10.0834 3.73752 10.2484 3.58169C10.3237 3.50253 10.4145 3.43965 10.5151 3.39694C10.6158 3.35423 10.7241 3.33259 10.8334 3.33336C11.0767 3.33336 11.2717 3.41669 11.4184 3.58169L14.6634 6.82752C14.8492 7.00252 14.9417 7.22752 14.9417 7.50002C14.9438 7.62512 14.9202 7.74932 14.8725 7.86498C14.8248 7.98064 14.7539 8.0853 14.6642 8.17252L11.4184 11.4184ZM14.1667 6.66669C14.4 6.66669 14.5959 6.75002 14.7517 6.91502C14.8323 6.98924 14.8962 7.07982 14.939 7.18071C14.9819 7.28159 15.0026 7.39046 15 7.50002C15.0008 7.60933 14.9791 7.71763 14.9364 7.81824C14.8937 7.91886 14.8309 8.00965 14.7517 8.08502C14.6775 8.16566 14.5869 8.22953 14.486 8.27236C14.3851 8.31518 14.2763 8.33598 14.1667 8.33336H4.16669C4.05739 8.33412 3.94909 8.31248 3.84847 8.26977C3.74786 8.22706 3.65706 8.16418 3.58169 8.08502C3.50253 8.00965 3.43965 7.91886 3.39694 7.81824C3.35423 7.71763 3.33259 7.60933 3.33336 7.50002C3.33336 7.26669 3.41669 7.07086 3.58169 6.91502C3.65706 6.83586 3.74786 6.77298 3.84847 6.73027C3.94909 6.68756 4.05739 6.66592 4.16669 6.66669H14.1667Z" fill="white"/>
</g>
</svg>
