<svg width="16" height="16" viewBox="0 0 16 16" fill="none" xmlns="http://www.w3.org/2000/svg">
<g id="Exit">
<path id="Vector" d="M4.66669 0.500023C4.90002 0.500023 5.09586 0.583356 5.25169 0.748356C5.33233 0.822576 5.3962 0.913156 5.43903 1.01404C5.48185 1.11493 5.50265 1.22379 5.50002 1.33336C5.50079 1.44266 5.47915 1.55096 5.43644 1.65157C5.39373 1.75219 5.33085 1.84298 5.25169 1.91836C5.17747 1.999 5.08689 2.06287 4.986 2.10569C4.88512 2.14852 4.77626 2.16931 4.66669 2.16669H3.83336C3.50169 2.16669 3.20919 2.23502 2.95586 2.37169C2.70252 2.49836 2.50752 2.68836 2.37169 2.94169C2.23502 3.19502 2.16669 3.49169 2.16669 3.83336V12.1667C2.16669 12.4984 2.23502 12.7909 2.37169 13.0442C2.50752 13.2975 2.70252 13.4925 2.95586 13.6284C3.20919 13.765 3.50169 13.8334 3.83336 13.8334H4.66669C4.90002 13.8334 5.09586 13.9167 5.25169 14.0817C5.33233 14.1559 5.3962 14.2465 5.43903 14.3474C5.48185 14.4483 5.50265 14.5571 5.50002 14.6667C5.50079 14.776 5.47915 14.8843 5.43644 14.9849C5.39373 15.0855 5.33085 15.1763 5.25169 15.2517C5.17747 15.3323 5.08689 15.3962 4.986 15.439C4.88512 15.4819 4.77626 15.5026 4.66669 15.5H3.83336C3.23919 15.5 2.68336 15.3492 2.16669 15.0467C1.66638 14.7511 1.24899 14.3337 0.953356 13.8334C0.65449 13.3289 0.497832 12.753 0.500023 12.1667V3.83336C0.500023 3.22919 0.650856 2.67336 0.953356 2.16669C1.24351 1.66216 1.66216 1.24351 2.16669 0.953356C2.6711 0.65449 3.24705 0.497832 3.83336 0.500023H4.66669ZM11.9184 11.9184C11.7717 12.0842 11.5767 12.1667 11.3334 12.1667C11.2241 12.1675 11.1158 12.1458 11.0151 12.1031C10.9145 12.0604 10.8237 11.9975 10.7484 11.9184C10.6692 11.843 10.6063 11.7522 10.5636 11.6516C10.5209 11.551 10.4993 11.4427 10.5 11.3334C10.5 11.09 10.5834 10.895 10.7484 10.7484L13.9942 7.50252C14.0425 7.45419 14.0775 7.52752 14.0967 7.72252C14.1159 7.90752 14.1159 8.09752 14.0967 8.29252C14.0767 8.47752 14.0434 8.54586 13.9942 8.49669L10.7484 5.25169C10.5834 5.09586 10.5 4.90002 10.5 4.66669C10.5 4.43336 10.5834 4.23752 10.7484 4.08169C10.8237 4.00253 10.9145 3.93965 11.0151 3.89694C11.1158 3.85423 11.2241 3.83259 11.3334 3.83336C11.5767 3.83336 11.7717 3.91669 11.9184 4.08169L15.1634 7.32752C15.3492 7.50252 15.4417 7.72752 15.4417 8.00002C15.4438 8.12512 15.4202 8.24932 15.3725 8.36498C15.3248 8.48064 15.2539 8.5853 15.1642 8.67252L11.9184 11.9184ZM14.6667 7.16669C14.9 7.16669 15.0959 7.25002 15.2517 7.41502C15.3323 7.48924 15.3962 7.57982 15.439 7.68071C15.4819 7.78159 15.5026 7.89046 15.5 8.00002C15.5008 8.10933 15.4791 8.21763 15.4364 8.31824C15.3937 8.41886 15.3309 8.50965 15.2517 8.58502C15.1775 8.66566 15.0869 8.72953 14.986 8.77236C14.8851 8.81518 14.7763 8.83598 14.6667 8.83336H4.66669C4.55739 8.83412 4.44909 8.81248 4.34847 8.76977C4.24786 8.72706 4.15706 8.66418 4.08169 8.58502C4.00253 8.50965 3.93965 8.41886 3.89694 8.31824C3.85423 8.21763 3.83259 8.10933 3.83336 8.00002C3.83336 7.76669 3.91669 7.57086 4.08169 7.41502C4.15706 7.33586 4.24786 7.27298 4.34847 7.23027C4.44909 7.18756 4.55739 7.16592 4.66669 7.16669H14.6667Z" fill="#202020"/>
</g>
</svg>
