<svg width="28" height="28" viewBox="0 0 28 28" fill="none" xmlns="http://www.w3.org/2000/svg">
<g id="Active=True" clip-path="url(#clip0_189_4310)">
<path id="Vector" d="M20.4165 2.23828C19.1027 2.25872 17.8177 2.62544 16.691 3.30143C15.5644 3.97742 14.636 4.93873 13.9998 6.08828C13.3635 4.93873 12.4352 3.97742 11.3086 3.30143C10.1819 2.62544 8.89685 2.25872 7.58312 2.23828C5.48889 2.32927 3.51578 3.24541 2.09487 4.78655C0.673958 6.32769 -0.0792537 8.36856 -0.000211421 10.4633C-0.000211421 15.7681 5.58346 21.5618 10.2665 25.4899C11.312 26.3686 12.634 26.8503 13.9998 26.8503C15.3655 26.8503 16.6875 26.3686 17.7331 25.4899C22.4161 21.5618 27.9998 15.7681 27.9998 10.4633C28.0788 8.36856 27.3256 6.32769 25.9047 4.78655C24.4838 3.24541 22.5107 2.32927 20.4165 2.23828Z" fill="#F9FCFF"/>
</g>
<defs>
<clipPath id="clip0_189_4310">
<rect width="28" height="28" fill="white"/>
</clipPath>
</defs>
</svg>
