<svg width="28" height="28" viewBox="0 0 28 28" fill="none" xmlns="http://www.w3.org/2000/svg">
<g id="Active=False" clip-path="url(#clip0_189_4312)">
<path id="Vector" d="M20.4165 2.23828C19.1027 2.25872 17.8177 2.62544 16.691 3.30143C15.5644 3.97742 14.636 4.93873 13.9998 6.08828C13.3635 4.93873 12.4352 3.97742 11.3086 3.30143C10.1819 2.62544 8.89685 2.25872 7.58312 2.23828C5.48889 2.32927 3.51578 3.24541 2.09487 4.78655C0.673958 6.32769 -0.0792537 8.36856 -0.000211421 10.4633C-0.000211421 15.7681 5.58346 21.5618 10.2665 25.4899C11.312 26.3686 12.634 26.8503 13.9998 26.8503C15.3655 26.8503 16.6875 26.3686 17.7331 25.4899C22.4161 21.5618 27.9998 15.7681 27.9998 10.4633C28.0788 8.36856 27.3256 6.32769 25.9047 4.78655C24.4838 3.24541 22.5107 2.32927 20.4165 2.23828ZM16.234 23.7049C15.6086 24.2316 14.8173 24.5203 13.9998 24.5203C13.1822 24.5203 12.391 24.2316 11.7656 23.7049C5.77129 18.6754 2.33312 13.8501 2.33312 10.4633C2.25337 8.98712 2.76055 7.5393 3.74405 6.4356C4.72754 5.3319 6.10756 4.66186 7.58312 4.57161C9.05868 4.66186 10.4387 5.3319 11.4222 6.4356C12.4057 7.5393 12.9129 8.98712 12.8331 10.4633C12.8331 10.7727 12.956 11.0694 13.1748 11.2882C13.3936 11.507 13.6904 11.6299 13.9998 11.6299C14.3092 11.6299 14.606 11.507 14.8247 11.2882C15.0435 11.0694 15.1665 10.7727 15.1665 10.4633C15.0867 8.98712 15.5939 7.5393 16.5774 6.4356C17.5609 5.3319 18.9409 4.66186 20.4165 4.57161C21.892 4.66186 23.272 5.3319 24.2555 6.4356C25.239 7.5393 25.7462 8.98712 25.6665 10.4633C25.6665 13.8501 22.2283 18.6754 16.234 23.7003V23.7049Z" fill="#D7E7F8"/>
</g>
<defs>
<clipPath id="clip0_189_4312">
<rect width="28" height="28" fill="white"/>
</clipPath>
</defs>
</svg>
