<svg width="143" height="33" viewBox="0 0 143 33" fill="none" xmlns="http://www.w3.org/2000/svg">
<g id="Google Play">
<path id="Vector" d="M0.596973 1.19265C0.213476 1.69943 0 2.32284 0 2.98996V29.3948C0 30.0144 0.184823 30.5965 0.518667 31.0828L14.8858 16.0969L0.596973 1.19265ZM16.2012 14.7247L20.8621 9.86313L4.4785 0.404344C3.76755 -0.00641557 2.95166 -0.103761 2.19042 0.110221L16.2012 14.7247ZM16.2012 17.469L2.04874 32.2309C2.35063 32.3328 2.66708 32.3848 2.98569 32.3851C3.49841 32.3851 4.01132 32.2502 4.47857 31.9804L20.98 22.4533L16.2012 17.469ZM27.3457 13.6066L22.5558 10.8411L17.5169 16.0968L22.6734 21.4756L27.3457 18.778C28.2806 18.2384 28.8388 17.2716 28.8388 16.1923C28.8388 15.1129 28.2806 14.1462 27.3457 13.6066Z" fill="white"/>
<path id="path35" d="M120.352 27.7701H122.59V12.7749H120.352V27.7701ZM140.511 18.1769L137.946 24.6777H137.869L135.206 18.1769H132.795L136.789 27.2628L134.512 32.3171H136.846L143 18.1774L140.511 18.1769ZM127.818 26.0669C127.086 26.0669 126.063 25.6999 126.063 24.7934C126.063 23.6361 127.337 23.1924 128.436 23.1924C129.419 23.1924 129.883 23.4042 130.481 23.6938C130.307 25.0829 129.111 26.0669 127.818 26.0669ZM128.089 17.849C126.469 17.849 124.791 18.563 124.096 20.1448L126.082 20.9741C126.507 20.1448 127.297 19.8749 128.127 19.8749C129.285 19.8749 130.461 20.5688 130.481 21.8038V21.958C130.075 21.7265 129.207 21.3794 128.147 21.3794C126.004 21.3794 123.825 22.5558 123.825 24.755C123.825 26.7612 125.581 28.0538 127.548 28.0538C129.052 28.0538 129.883 27.3787 130.403 26.5874H130.481V27.7456H132.642V21.9963C132.642 19.3342 130.653 17.849 128.089 17.849ZM114.257 20.0023H111.074V14.8627H114.257C115.93 14.8627 116.88 16.2477 116.88 17.4324C116.88 18.5944 115.93 20.0023 114.257 20.0023ZM114.199 12.7753H108.837V27.7705H111.074V22.0897H114.199C116.68 22.0897 119.118 20.2943 119.118 17.433C119.118 14.5722 116.68 12.7753 114.199 12.7753ZM84.9566 26.0694C83.4104 26.0694 82.1163 24.7743 82.1163 22.9973C82.1163 21.1996 83.4104 19.8862 84.9566 19.8862C86.4831 19.8862 87.6811 21.1996 87.6811 22.9973C87.6811 24.7743 86.4831 26.0694 84.9566 26.0694ZM87.5264 19.0163H87.449C86.9468 18.4175 85.9802 17.8764 84.7635 17.8764C82.2124 17.8764 79.8744 20.1182 79.8744 22.9973C79.8744 25.8567 82.2124 28.0789 84.7635 28.0789C85.9802 28.0789 86.9468 27.5377 87.449 26.9197H87.5264V27.6534C87.5264 29.6058 86.4831 30.6487 84.8019 30.6487C83.4305 30.6487 82.5802 29.6634 82.2321 28.8326L80.2808 29.6441C80.8407 30.9962 82.3282 32.6586 84.802 32.6586C87.4304 32.6586 89.6526 31.1124 89.6526 27.3441V18.1854H87.5265L87.5264 19.0163ZM91.1987 27.7697H93.4392V12.7745H91.1987V27.7697ZM96.7437 22.823C96.6861 20.852 98.2711 19.8474 99.4106 19.8474C100.3 19.8474 101.053 20.292 101.305 20.9292L96.7437 22.823ZM103.7 21.1223C103.275 19.9829 101.98 17.8764 99.3332 17.8764C96.7048 17.8764 94.5215 19.9439 94.5215 22.9777C94.5215 25.8375 96.6861 28.079 99.5839 28.079C101.922 28.079 103.275 26.6495 103.836 25.8183L102.097 24.6587C101.517 25.5091 100.725 26.0695 99.5839 26.0695C98.4445 26.0695 97.6325 25.5476 97.1116 24.5234L103.932 21.7024L103.7 21.1223ZM49.3568 19.4417V21.6058H54.5353C54.3807 22.8231 53.9749 23.7118 53.3565 24.3303C52.6026 25.0836 51.4239 25.9148 49.3567 25.9148C46.1683 25.9148 43.6758 23.345 43.6758 20.1567C43.6758 16.9683 46.1683 14.3981 49.3567 14.3981C51.0765 14.3981 52.3323 15.0746 53.2598 15.9442L54.7868 14.4173C53.4918 13.1808 51.7723 12.234 49.3567 12.234C44.989 12.234 41.3177 15.7895 41.3177 20.1567C41.3177 24.5233 44.989 28.079 49.3567 28.079C51.7138 28.079 53.4918 27.3059 54.8829 25.8568C56.3129 24.4268 56.7574 22.4173 56.7574 20.7939C56.7574 20.2921 56.7185 19.8283 56.6412 19.4417H49.3568ZM62.6455 26.0694C61.0993 26.0694 59.7659 24.794 59.7659 22.9777C59.7659 21.142 61.0993 19.8863 62.6455 19.8863C64.1911 19.8863 65.5244 21.142 65.5244 22.9777C65.5244 24.794 64.1911 26.0694 62.6455 26.0694ZM62.6455 17.8764C59.8235 17.8764 57.5244 20.0212 57.5244 22.9777C57.5244 25.9148 59.8235 28.079 62.6455 28.079C65.4664 28.079 67.7659 25.9148 67.7659 22.9777C67.7659 20.0212 65.4664 17.8764 62.6455 17.8764ZM73.8156 26.0694C72.2705 26.0694 70.9367 24.794 70.9367 22.9777C70.9367 21.142 72.2706 19.8863 73.8156 19.8863C75.3619 19.8863 76.6948 21.142 76.6948 22.9777C76.6948 24.794 75.3619 26.0694 73.8156 26.0694ZM73.8156 17.8764C70.9947 17.8764 68.6957 20.0212 68.6957 22.9777C68.6957 25.9148 70.9947 28.079 73.8156 28.079C76.6376 28.079 78.9367 25.9148 78.9367 22.9777C78.9367 20.0212 76.6376 17.8764 73.8156 17.8764Z" fill="white"/>
<path id="path33" d="M48.9368 3.51941H45.4378V4.38527H48.0598C47.9885 5.09185 47.7074 5.64658 47.2332 6.04951C46.7591 6.45251 46.1537 6.65486 45.4379 6.65486C44.6526 6.65486 43.9873 6.38127 43.442 5.83782C42.9078 5.28309 42.6361 4.59711 42.6361 3.77066C42.6361 2.94426 42.9078 2.25828 43.442 1.70359C43.9873 1.16013 44.6526 0.888351 45.4379 0.888351C45.8409 0.888351 46.225 0.957681 46.5773 1.10952C46.9297 1.26125 47.2126 1.47306 47.4338 1.74485L48.0991 1.07954C47.7973 0.736509 47.4151 0.47419 46.9408 0.28301C46.4667 0.0918207 45.9719 6.34855e-05 45.4378 6.34855e-05C44.3902 6.34855e-05 43.5019 0.363604 42.7766 1.08892C42.0513 1.81601 41.6877 2.71186 41.6877 3.77068C41.6877 4.82949 42.0513 5.72728 42.7766 6.45261C43.5019 7.17778 44.3902 7.54147 45.4378 7.54147C46.5379 7.54147 47.415 7.18909 48.0896 6.47312C48.6837 5.87726 48.9873 5.07139 48.9873 4.06313C48.9873 3.89257 48.9668 3.7106 48.9368 3.51941ZM50.2923 0.16108V7.38017H54.507V6.49368H51.2199V4.2036H54.1848V3.33774H51.2199V1.04947H54.507V0.161053L50.2923 0.16108ZM60.4171 1.04949V0.16108H55.4563V1.04949H57.4729V7.38015H58.4006V1.04949H60.4171ZM64.9083 0.16108H63.9806V7.38017H64.9083V0.16108ZM71.0314 1.04949V0.16108H66.0707V1.04949H68.0872V7.38015H69.0148V1.04949H71.0314ZM80.3925 1.1001C79.6766 0.36355 78.7995 0 77.7519 0C76.7024 0 75.8254 0.363541 75.1094 1.08886C74.3935 1.80479 74.0412 2.70245 74.0412 3.77061C74.0412 4.83878 74.3935 5.73657 75.1094 6.45255C75.8254 7.17771 76.7024 7.54141 77.7519 7.54141C78.7901 7.54141 79.6765 7.17774 80.3925 6.45255C81.1084 5.73661 81.4607 4.83887 81.4607 3.77061C81.4607 2.7118 81.1084 1.8159 80.3925 1.1001ZM75.7747 1.70353C76.3089 1.16007 76.9648 0.888287 77.7519 0.888287C78.5371 0.888287 79.1931 1.16008 79.7178 1.70353C80.2519 2.23763 80.5142 2.9347 80.5142 3.7706C80.5142 4.60839 80.2519 5.30358 79.7178 5.83775C79.1931 6.38121 78.5371 6.65479 77.7519 6.65479C76.9648 6.65479 76.3088 6.3812 75.7747 5.83775C75.2518 5.29238 74.9895 4.60838 74.9895 3.7706C74.9895 2.93472 75.2518 2.24886 75.7747 1.70353ZM83.6647 2.88423L83.6253 1.49168H83.6647L87.3342 7.38009H88.303V0.161008H87.3754V4.38519L87.4147 5.77775H87.3754L83.8671 0.161008H82.737V7.38009H83.6647V2.88423Z" fill="white"/>
</g>
</svg>
