<svg width="143" height="33" viewBox="0 0 143 33" fill="none" xmlns="http://www.w3.org/2000/svg">
<g id="Google Play">
<path id="Vector" d="M0.596973 1.19265C0.213476 1.69943 0 2.32284 0 2.98996V29.3948C0 30.0144 0.184823 30.5965 0.518667 31.0828L14.8858 16.0969L0.596973 1.19265ZM16.2012 14.7247L20.8621 9.86313L4.4785 0.404344C3.76755 -0.00641557 2.95166 -0.103761 2.19042 0.110221L16.2012 14.7247ZM16.2012 17.469L2.04874 32.2309C2.35063 32.3328 2.66708 32.3848 2.98569 32.3851C3.49841 32.3851 4.01132 32.2502 4.47857 31.9804L20.98 22.4533L16.2012 17.469ZM27.3457 13.6066L22.5558 10.8411L17.5169 16.0968L22.6734 21.4756L27.3457 18.778C28.2806 18.2384 28.8388 17.2716 28.8388 16.1923C28.8388 15.1129 28.2806 14.1462 27.3457 13.6066Z" fill="#202020"/>
<path id="path35" d="M120.352 27.7701H122.59V12.7749H120.352V27.7701ZM140.511 18.1769L137.946 24.6777H137.869L135.206 18.1769H132.795L136.79 27.2628L134.512 32.3171H136.846L143 18.1774L140.511 18.1769ZM127.818 26.0669C127.086 26.0669 126.063 25.6999 126.063 24.7934C126.063 23.6361 127.337 23.1924 128.436 23.1924C129.419 23.1924 129.884 23.4042 130.481 23.6938C130.307 25.0829 129.111 26.0669 127.818 26.0669ZM128.089 17.849C126.469 17.849 124.791 18.563 124.096 20.1448L126.083 20.9741C126.507 20.1448 127.297 19.8749 128.128 19.8749C129.285 19.8749 130.462 20.5688 130.481 21.8038V21.958C130.075 21.7265 129.207 21.3794 128.147 21.3794C126.005 21.3794 123.825 22.5558 123.825 24.755C123.825 26.7612 125.581 28.0538 127.548 28.0538C129.052 28.0538 129.883 27.3787 130.403 26.5874H130.481V27.7456H132.642V21.9963C132.642 19.3342 130.653 17.849 128.089 17.849ZM114.257 20.0023H111.074V14.8627H114.257C115.93 14.8627 116.88 16.2477 116.88 17.4324C116.88 18.5944 115.93 20.0023 114.257 20.0023ZM114.2 12.7753H108.837V27.7705H111.074V22.0897H114.2C116.68 22.0897 119.118 20.2943 119.118 17.433C119.118 14.5722 116.68 12.7753 114.2 12.7753ZM84.9567 26.0694C83.4105 26.0694 82.1164 24.7743 82.1164 22.9973C82.1164 21.1996 83.4105 19.8862 84.9567 19.8862C86.4832 19.8862 87.6812 21.1996 87.6812 22.9973C87.6812 24.7743 86.4832 26.0694 84.9567 26.0694ZM87.5265 19.0163H87.4492C86.947 18.4175 85.9803 17.8764 84.7636 17.8764C82.2125 17.8764 79.8746 20.1182 79.8746 22.9973C79.8746 25.8567 82.2125 28.0789 84.7636 28.0789C85.9803 28.0789 86.9469 27.5377 87.4492 26.9197H87.5265V27.6534C87.5265 29.6058 86.4832 30.6487 84.8021 30.6487C83.4306 30.6487 82.5803 29.6634 82.2322 28.8326L80.2809 29.6441C80.8408 30.9962 82.3283 32.6586 84.8021 32.6586C87.4305 32.6586 89.6527 31.1124 89.6527 27.3441V18.1854H87.5266L87.5265 19.0163ZM91.1988 27.7697H93.4393V12.7745H91.1988V27.7697ZM96.7439 22.823C96.6862 20.852 98.2712 19.8474 99.4107 19.8474C100.3 19.8474 101.053 20.292 101.305 20.9292L96.7439 22.823ZM103.7 21.1223C103.275 19.9829 101.981 17.8764 99.3333 17.8764C96.7049 17.8764 94.5216 19.9439 94.5216 22.9777C94.5216 25.8375 96.6862 28.079 99.584 28.079C101.922 28.079 103.275 26.6495 103.836 25.8183L102.097 24.6587C101.517 25.5091 100.725 26.0695 99.584 26.0695C98.4446 26.0695 97.6327 25.5476 97.1117 24.5234L103.932 21.7024L103.7 21.1223ZM49.3569 19.4417V21.6058H54.5354C54.3808 22.8231 53.975 23.7118 53.3566 24.3303C52.6027 25.0836 51.424 25.9148 49.3568 25.9148C46.1684 25.9148 43.676 23.345 43.676 20.1567C43.676 16.9683 46.1684 14.3981 49.3568 14.3981C51.0767 14.3981 52.3324 15.0746 53.26 15.9442L54.7869 14.4173C53.4919 13.1808 51.7724 12.234 49.3568 12.234C44.9892 12.234 41.3179 15.7895 41.3179 20.1567C41.3179 24.5233 44.9892 28.079 49.3568 28.079C51.7139 28.079 53.492 27.3059 54.883 25.8568C56.313 24.4268 56.7575 22.4173 56.7575 20.7939C56.7575 20.2921 56.7186 19.8283 56.6413 19.4417H49.3569ZM62.6456 26.0694C61.0994 26.0694 59.766 24.794 59.766 22.9777C59.766 21.142 61.0994 19.8863 62.6456 19.8863C64.1912 19.8863 65.5246 21.142 65.5246 22.9777C65.5246 24.794 64.1912 26.0694 62.6456 26.0694ZM62.6456 17.8764C59.8236 17.8764 57.5245 20.0212 57.5245 22.9777C57.5245 25.9148 59.8236 28.079 62.6456 28.079C65.4665 28.079 67.7661 25.9148 67.7661 22.9777C67.7661 20.0212 65.4665 17.8764 62.6456 17.8764ZM73.8158 26.0694C72.2706 26.0694 70.9368 24.794 70.9368 22.9777C70.9368 21.142 72.2707 19.8863 73.8158 19.8863C75.362 19.8863 76.6949 21.142 76.6949 22.9777C76.6949 24.794 75.362 26.0694 73.8158 26.0694ZM73.8158 17.8764C70.9948 17.8764 68.6958 20.0212 68.6958 22.9777C68.6958 25.9148 70.9948 28.079 73.8158 28.079C76.6378 28.079 78.9368 25.9148 78.9368 22.9777C78.9368 20.0212 76.6378 17.8764 73.8158 17.8764Z" fill="#202020"/>
<path id="path33" d="M48.937 3.51941H45.4381V4.38527H48.06C47.9888 5.09185 47.7076 5.64658 47.2335 6.04951C46.7594 6.45251 46.154 6.65486 45.4381 6.65486C44.6528 6.65486 43.9875 6.38127 43.4423 5.83782C42.9081 5.28309 42.6364 4.59711 42.6364 3.77066C42.6364 2.94426 42.9081 2.25828 43.4423 1.70359C43.9875 1.16013 44.6529 0.888351 45.4381 0.888351C45.8411 0.888351 46.2253 0.957681 46.5775 1.10952C46.9299 1.26125 47.2128 1.47306 47.434 1.74485L48.0993 1.07954C47.7976 0.736509 47.4153 0.47419 46.941 0.28301C46.4669 0.0918207 45.9722 6.34855e-05 45.438 6.34855e-05C44.3904 6.34855e-05 43.5022 0.363604 42.7768 1.08892C42.0516 1.81601 41.688 2.71186 41.688 3.77068C41.688 4.82949 42.0515 5.72728 42.7768 6.45261C43.5021 7.17778 44.3904 7.54147 45.438 7.54147C46.5381 7.54147 47.4152 7.18909 48.0899 6.47312C48.684 5.87726 48.9875 5.07139 48.9875 4.06313C48.9875 3.89257 48.967 3.7106 48.937 3.51941ZM50.2925 0.16108V7.38017H54.5073V6.49368H51.2202V4.2036H54.185V3.33774H51.2202V1.04947H54.5073V0.161053L50.2925 0.16108ZM60.4174 1.04949V0.16108H55.4566V1.04949H57.4732V7.38015H58.4008V1.04949H60.4174ZM64.9085 0.16108H63.9809V7.38017H64.9085V0.16108ZM71.0317 1.04949V0.16108H66.071V1.04949H68.0874V7.38015H69.0151V1.04949H71.0317ZM80.3927 1.1001C79.6768 0.36355 78.7998 0 77.7521 0C76.7026 0 75.8256 0.363541 75.1097 1.08886C74.3937 1.80479 74.0415 2.70245 74.0415 3.77061C74.0415 4.83878 74.3938 5.73657 75.1097 6.45255C75.8256 7.17771 76.7026 7.54141 77.7521 7.54141C78.7903 7.54141 79.6768 7.17774 80.3927 6.45255C81.1087 5.73661 81.4609 4.83887 81.4609 3.77061C81.4609 2.7118 81.1086 1.8159 80.3927 1.1001ZM75.775 1.70353C76.3091 1.16007 76.9651 0.888287 77.7521 0.888287C78.5374 0.888287 79.1933 1.16008 79.7181 1.70353C80.2522 2.23763 80.5145 2.9347 80.5145 3.7706C80.5145 4.60839 80.2522 5.30358 79.7181 5.83775C79.1933 6.38121 78.5374 6.65479 77.7521 6.65479C76.965 6.65479 76.3091 6.3812 75.775 5.83775C75.252 5.29238 74.9897 4.60838 74.9897 3.7706C74.9897 2.93472 75.252 2.24886 75.775 1.70353ZM83.6649 2.88423L83.6256 1.49168H83.6649L87.3344 7.38009H88.3033V0.161008H87.3756V4.38519L87.4149 5.77775H87.3756L83.8673 0.161008H82.7372V7.38009H83.6649V2.88423Z" fill="#202020"/>
</g>
</svg>
