<svg width="20" height="20" viewBox="0 0 20 20" fill="none" xmlns="http://www.w3.org/2000/svg">
<g id="Frame">
<path id="Vector" d="M10 1.99667C5.58867 1.99667 2 5.58533 2 9.99667V14.3367C2 15.2233 2.34667 16.0633 2.96667 16.69L3.88667 17.6167L5.22 18.0033H5.24C6.34 18.0033 7.24 17.1033 7.24 16.0033V12.07C7.24 10.97 6.34 10.07 5.24 10.07H5.22L3.88667 10.4633L3.33333 11.0193V9.99667C3.33333 6.32067 6.324 3.33 10 3.33C13.676 3.33 16.6667 6.32067 16.6667 9.99667V11.0187L16.1133 10.4633L14.78 10.07H14.76C13.66 10.07 12.76 10.97 12.76 12.07V16.0033C12.76 17.1033 13.66 18.0033 14.76 18.0033H14.78L16.1133 17.6167L17.0333 16.69C17.6533 16.0633 18 15.2233 18 14.3367V9.99667C18 5.58533 14.4113 1.99667 10 1.99667Z" fill="#2D71AE"/>
</g>
</svg>
