<svg width="20" height="20" viewBox="0 0 20 20" fill="none" xmlns="http://www.w3.org/2000/svg">
<g id="Active=True">
<path id="Vector" d="M18.0156 12.2656C17.1328 13.3359 13.25 16.5391 11.2305 18.1797C10.5117 18.7656 9.48438 18.7656 8.76562 18.1797C6.74609 16.5391 2.86719 13.3359 1.98047 12.2656C0.628906 10.6367 0 9.08594 0 7.39844C0 5.75 0.5625 4.23438 1.58594 3.125C2.625 2.00391 4.04297 1.38281 5.58594 1.38281C6.74219 1.38281 7.79688 1.75 8.72656 2.46875C9.21094 2.84766 9.64062 3.29297 9.99609 3.79687C10.3555 3.29687 10.7812 2.84766 11.2656 2.46875C12.1953 1.74609 13.2539 1.38281 14.4102 1.38281C15.957 1.38281 17.375 2.00391 18.4102 3.125C19.4297 4.23438 19.9961 5.74609 19.9961 7.39844C20 9.08594 19.3711 10.6367 18.0156 12.2656Z" fill="#FF9E30"/>
</g>
</svg>
