<svg width="20" height="20" viewBox="0 0 20 20" fill="none" xmlns="http://www.w3.org/2000/svg">
<g id="Active=False">
<path id="Vector" d="M17.6313 11.9458L17.6299 11.9475C17.2225 12.4414 16.0704 13.4784 14.7245 14.6287C13.3956 15.7644 11.9237 16.9723 10.9152 17.7916L10.9145 17.7921C10.3797 18.2281 9.61637 18.2281 9.08156 17.7921L9.08089 17.7916C8.0725 16.9724 6.60156 15.7645 5.27316 14.6287C3.92801 13.4787 2.77524 12.4412 2.3655 11.9466L2.36526 11.9464C1.06913 10.3842 0.5 8.94266 0.5 7.39844C0.5 5.86328 1.02321 4.4726 1.95304 3.46446C2.89727 2.44592 4.18209 1.88281 5.58594 1.88281C6.62799 1.88281 7.57537 2.21109 8.41966 2.86348C8.86689 3.2135 9.26179 3.62334 9.58752 4.08509L9.99228 4.65887L10.4021 4.08869C10.735 3.62554 11.128 3.21131 11.5731 2.86304C12.4158 2.20819 13.3665 1.88281 14.4102 1.88281C15.8183 1.88281 17.1026 2.44615 18.0424 3.46377C18.9696 4.47287 19.4961 5.86037 19.4961 7.39844L19.4961 7.39959C19.4997 8.94286 18.9311 10.3838 17.6313 11.9458Z" stroke="#FF9E30"/>
</g>
</svg>
