<svg width="28" height="28" viewBox="0 0 28 28" fill="none" xmlns="http://www.w3.org/2000/svg">
<g id="Active=False" clip-path="url(#clip0_189_4292)">
<path id="Vector" d="M26.9745 10.5556L18.1253 1.70523C17.0301 0.613218 15.5466 0 14 0C12.4534 0 10.9699 0.613218 9.87468 1.70523L1.02551 10.5556C0.699344 10.8796 0.440746 11.2652 0.26471 11.69C0.0886751 12.1148 -0.00129547 12.5703 1.40927e-05 13.0301V24.4832C1.40927e-05 25.4115 0.368763 26.3017 1.02514 26.9581C1.68152 27.6145 2.57176 27.9832 3.50001 27.9832H24.5C25.4283 27.9832 26.3185 27.6145 26.9749 26.9581C27.6313 26.3017 28 25.4115 28 24.4832V13.0301C28.0013 12.5703 27.9114 12.1148 27.7353 11.69C27.5593 11.2652 27.3007 10.8796 26.9745 10.5556ZM17.5 25.6499H10.5V21.0602C10.5 20.132 10.8688 19.2417 11.5251 18.5854C12.1815 17.929 13.0718 17.5602 14 17.5602C14.9283 17.5602 15.8185 17.929 16.4749 18.5854C17.1313 19.2417 17.5 20.132 17.5 21.0602V25.6499ZM25.6667 24.4832C25.6667 24.7926 25.5438 25.0894 25.325 25.3082C25.1062 25.527 24.8094 25.6499 24.5 25.6499H19.8333V21.0602C19.8333 19.5131 19.2188 18.0294 18.1248 16.9354C17.0308 15.8415 15.5471 15.2269 14 15.2269C12.4529 15.2269 10.9692 15.8415 9.87522 16.9354C8.78126 18.0294 8.16668 19.5131 8.16668 21.0602V25.6499H3.50001C3.19059 25.6499 2.89385 25.527 2.67506 25.3082C2.45626 25.0894 2.33335 24.7926 2.33335 24.4832V13.0301C2.33443 12.7209 2.45723 12.4245 2.67518 12.2052L11.5243 3.3584C12.182 2.70381 13.0721 2.33633 14 2.33633C14.9279 2.33633 15.818 2.70381 16.4757 3.3584L25.3248 12.2087C25.5419 12.4272 25.6647 12.7221 25.6667 13.0301V24.4832Z" fill="#D7E7F8"/>
</g>
<defs>
<clipPath id="clip0_189_4292">
<rect width="28" height="28" fill="white"/>
</clipPath>
</defs>
</svg>
