<svg width="28" height="28" viewBox="0 0 28 28" fill="none" xmlns="http://www.w3.org/2000/svg">
<g id="Active=True" clip-path="url(#clip0_189_4290)">
<g id="Vector">
<path d="M14 17.4904C12.067 17.4904 10.5 19.0574 10.5 20.9904V27.9904H17.5V20.9904C17.5 19.0574 15.933 17.4904 14 17.4904Z" fill="#F9FCFF"/>
<path d="M19.8334 20.9904V27.9904H24.5C26.433 27.9904 28 26.4234 28 24.4904V13.8492C28.0003 13.2431 27.7647 12.6607 27.3431 12.2252L17.4289 1.50703C15.6795 -0.385708 12.727 -0.501919 10.8343 1.24743C10.7444 1.33052 10.6578 1.41712 10.5747 1.50703L0.677852 12.2217C0.243522 12.659 -0.000162697 13.2504 8.14978e-08 13.8667V24.4904C8.14978e-08 26.4234 1.56702 27.9904 3.5 27.9904H8.16665V20.9904C8.18847 17.8091 10.757 15.2112 13.8581 15.1364C17.063 15.0591 19.8089 17.7012 19.8334 20.9904Z" fill="#F9FCFF"/>
<path d="M14 17.4904C12.067 17.4904 10.5 19.0574 10.5 20.9904V27.9904H17.5V20.9904C17.5 19.0574 15.933 17.4904 14 17.4904Z" fill="#F9FCFF"/>
</g>
</g>
<defs>
<clipPath id="clip0_189_4290">
<rect width="28" height="28" fill="white"/>
</clipPath>
</defs>
</svg>
