<svg width="28" height="28" viewBox="0 0 28 28" fill="none" xmlns="http://www.w3.org/2000/svg">
<g id="Active=False" clip-path="url(#clip0_189_4307)">
<path id="Vector" d="M25.6667 0H13.4167C11.165 0 9.33333 1.83167 9.33333 4.08333V18.0833C9.33333 20.335 11.165 22.1667 13.4167 22.1667H28V2.33333C28 1.0465 26.9535 0 25.6667 0ZM13.4167 2.33333H25.6667V14H13.4167C12.8113 13.9997 12.2134 14.1344 11.6667 14.3943V4.08333C11.6667 3.1185 12.4518 2.33333 13.4167 2.33333ZM13.4167 19.8333C12.4518 19.8333 11.6667 19.0482 11.6667 18.0833C11.6667 17.1185 12.4518 16.3333 13.4167 16.3333H25.6667V19.8333H13.4167ZM16.3333 24.5H18.6667V28H4.08333C1.83167 28 0 26.1683 0 23.9167V9.91667C0 7.665 1.83167 5.83333 4.08333 5.83333H7V8.16667H4.08333C3.1185 8.16667 2.33333 8.95183 2.33333 9.91667V20.2277C2.87992 19.9672 3.47788 19.8325 4.08333 19.8333H7.2485C7.49014 20.6874 7.90648 21.4819 8.47117 22.1667H4.08333C3.1185 22.1667 2.33333 22.9518 2.33333 23.9167C2.33333 24.8815 3.1185 25.6667 4.08333 25.6667H16.3333V24.5Z" fill="#D7E7F8"/>
</g>
<defs>
<clipPath id="clip0_189_4307">
<rect width="28" height="28" fill="white"/>
</clipPath>
</defs>
</svg>
