<svg width="28" height="28" viewBox="0 0 28 28" fill="none" xmlns="http://www.w3.org/2000/svg">
<g id="Active=True" clip-path="url(#clip0_189_4305)">
<path id="Vector" d="M2.33333 23.3333H18.6667V28H2.33333C1.71449 28 1.121 27.7542 0.683417 27.3166C0.245833 26.879 0 26.2855 0 25.6667C0 25.0478 0.245833 24.4543 0.683417 24.0168C1.121 23.5792 1.71449 23.3333 2.33333 23.3333ZM11.6667 16.3333H28V21H11.6667C11.0478 21 10.4543 20.7542 10.0168 20.3166C9.57917 19.879 9.33333 19.2855 9.33333 18.6667C9.33333 18.0478 9.57917 17.4543 10.0168 17.0168C10.4543 16.5792 11.0478 16.3333 11.6667 16.3333ZM12.8333 0H25.6667C26.2855 0 26.879 0.245833 27.3166 0.683417C27.7542 1.121 28 1.71449 28 2.33333V14H11.6667C10.8053 13.9986 9.97391 14.3166 9.33333 14.8925V3.5C9.33333 2.57174 9.70208 1.6815 10.3585 1.02513C11.0148 0.368749 11.9051 0 12.8333 0ZM7 18.6667V7H3.5C2.57174 7 1.6815 7.36875 1.02513 8.02513C0.368749 8.6815 0 9.57174 0 10.5L0 21.8925C0.640573 21.3166 1.47192 20.9986 2.33333 21H7.62417C7.21407 20.2908 6.99874 19.4859 7 18.6667Z" fill="#F9FCFF"/>
</g>
<defs>
<clipPath id="clip0_189_4305">
<rect width="28" height="28" fill="white"/>
</clipPath>
</defs>
</svg>
