<svg width="143" height="23" viewBox="0 0 143 23" fill="none" xmlns="http://www.w3.org/2000/svg">
<g id="Logo">
<g id="Logo_2">
<path d="M13.4487 11.81V11.934C14.4079 12.058 15.2523 12.5539 15.9821 13.4218C16.7327 14.2691 17.108 15.385 17.108 16.7695C17.108 18.5261 16.5451 19.9313 15.4191 20.9852C14.2932 22.0184 12.6043 22.535 10.3524 22.535H0V1.76685H10.3211C12.1977 1.76685 13.6989 2.2938 14.8249 3.34771C15.9508 4.40162 16.5138 5.7965 16.5138 7.53235C16.5138 8.73091 16.1906 9.71249 15.5442 10.4771C14.8979 11.2417 14.1994 11.686 13.4487 11.81ZM4.25355 5.36253V10.4461H9.57049C10.4254 10.4461 11.103 10.2084 11.6034 9.73315C12.1247 9.2372 12.3853 8.58625 12.3853 7.78032C12.3853 7.07772 12.1351 6.4991 11.6347 6.04448C11.1551 5.58985 10.5609 5.36253 9.85198 5.36253H4.25355ZM4.25355 18.9394H9.88325C10.8215 18.9394 11.5305 18.712 12.01 18.2574C12.5104 17.7821 12.7607 17.1518 12.7607 16.3666C12.7607 15.5813 12.5104 14.9614 12.01 14.5067C11.5096 14.0314 10.8528 13.7938 10.0396 13.7938H4.25355V18.9394Z" fill="#2D71AE"/>
<path d="M27.8726 6.69542C30.2079 6.69542 32.1887 7.46002 33.8151 8.98922C35.4623 10.4978 36.2859 12.4403 36.2859 14.8167C36.2859 17.1932 35.4623 19.146 33.8151 20.6752C32.1887 22.1837 30.2079 22.938 27.8726 22.938C25.4956 22.938 23.4836 22.1837 21.8363 20.6752C20.1891 19.146 19.3655 17.1932 19.3655 14.8167C19.3655 12.4403 20.1891 10.4978 21.8363 8.98922C23.4836 7.46002 25.4956 6.69542 27.8726 6.69542ZM27.8726 19.4353C29.0194 19.4353 30.0411 19.0117 30.9377 18.1644C31.8343 17.2965 32.2826 16.1806 32.2826 14.8167C32.2826 13.4528 31.8343 12.3473 30.9377 11.5C30.0411 10.6321 29.0194 10.1981 27.8726 10.1981C26.6841 10.1981 25.6312 10.6217 24.7137 11.469C23.8172 12.3163 23.3689 13.4322 23.3689 14.8167C23.3689 16.2013 23.8172 17.3172 24.7137 18.1644C25.6312 19.0117 26.6841 19.4353 27.8726 19.4353Z" fill="#2D71AE"/>
<path d="M46.6566 6.69542C48.9919 6.69542 50.9727 7.46002 52.5991 8.98922C54.2463 10.4978 55.0699 12.4403 55.0699 14.8167C55.0699 17.1932 54.2463 19.146 52.5991 20.6752C50.9727 22.1837 48.9919 22.938 46.6566 22.938C44.2796 22.938 42.2675 22.1837 40.6203 20.6752C38.9731 19.146 38.1495 17.1932 38.1495 14.8167C38.1495 12.4403 38.9731 10.4978 40.6203 8.98922C42.2675 7.46002 44.2796 6.69542 46.6566 6.69542ZM46.6566 19.4353C47.8034 19.4353 48.8251 19.0117 49.7217 18.1644C50.6183 17.2965 51.0666 16.1806 51.0666 14.8167C51.0666 13.4528 50.6183 12.3473 49.7217 11.5C48.8251 10.6321 47.8034 10.1981 46.6566 10.1981C45.4681 10.1981 44.4152 10.6217 43.4977 11.469C42.6012 12.3163 42.1529 13.4322 42.1529 14.8167C42.1529 16.2013 42.6012 17.3172 43.4977 18.1644C44.4152 19.0117 45.4681 19.4353 46.6566 19.4353Z" fill="#2D71AE"/>
<path d="M74.6671 22.535H69.1625L63.0324 16.4906H62.313V22.535H58.1846V0.216982H62.313V12.4609H63.0636L68.6621 7.06739H73.8539L66.3163 14.4757L74.6671 22.535Z" fill="#2D71AE"/>
<path d="M77.3468 0.743937C77.8264 0.247979 78.4206 0 79.1295 0C79.8385 0 80.4327 0.247979 80.9123 0.743937C81.3918 1.21923 81.6316 1.78751 81.6316 2.44879C81.6316 3.13073 81.3918 3.69901 80.9123 4.15364C80.4327 4.60827 79.8385 4.83558 79.1295 4.83558C78.3998 4.83558 77.7951 4.60827 77.3155 4.15364C76.8568 3.69901 76.6274 3.13073 76.6274 2.44879C76.6274 1.78751 76.8672 1.21923 77.3468 0.743937ZM81.1938 22.535H77.0653V7.06739H81.1938V22.535Z" fill="#2D71AE"/>
<path d="M100.527 14.5067V15.9016H88.6416C88.8501 16.9969 89.3088 17.8751 90.0178 18.5364C90.7476 19.177 91.592 19.4973 92.5511 19.4973C94.3235 19.4973 95.6162 18.8154 96.4294 17.4515L100.12 18.2264C99.4527 19.7969 98.4623 20.9852 97.1487 21.7911C95.8351 22.597 94.3026 23 92.5511 23C90.2993 23 88.4018 22.2354 86.8589 20.7062C85.3159 19.177 84.5445 17.2138 84.5445 14.8167C84.5445 12.4196 85.3159 10.4564 86.8589 8.92723C88.4227 7.37736 90.341 6.60243 92.6137 6.60243C94.7405 6.60243 96.5649 7.34636 98.087 8.83423C99.63 10.3014 100.443 12.1923 100.527 14.5067ZM92.6137 10.1671C91.7588 10.1671 90.9561 10.4151 90.2054 10.9111C89.4757 11.407 88.9961 12.1096 88.7667 13.0189H96.3043C96.0541 12.0683 95.5954 11.3553 94.9281 10.8801C94.2609 10.4048 93.4894 10.1671 92.6137 10.1671Z" fill="#2D71AE"/>
<path d="M103.108 18.6294C103.587 18.1541 104.181 17.9164 104.89 17.9164C105.599 17.9164 106.183 18.1541 106.642 18.6294C107.121 19.1047 107.361 19.6626 107.361 20.3032C107.361 20.9645 107.121 21.5225 106.642 21.9771C106.183 22.4317 105.599 22.659 104.89 22.659C104.181 22.659 103.587 22.4317 103.108 21.9771C102.649 21.5225 102.419 20.9645 102.419 20.3032C102.419 19.6626 102.649 19.1047 103.108 18.6294Z" fill="#2D71AE"/>
<path d="M125.698 7.06739V22.535H121.569V21.1402C120.318 22.3801 118.681 23 116.659 23C114.782 23 113.271 22.4007 112.124 21.2022C110.977 19.9829 110.404 18.4124 110.404 16.4906V7.06739H114.532V15.6226C114.532 16.7179 114.814 17.5961 115.377 18.2574C115.96 18.9187 116.732 19.2493 117.691 19.2493C120.277 19.2493 121.569 17.4721 121.569 13.9178V7.06739H125.698Z" fill="#2D71AE"/>
<path d="M143 19.1873V22.535H129.145V19.8693L137.527 10.4151H129.364V7.06739H142.625V9.79515L134.243 19.1873H143Z" fill="#2D71AE"/>
</g>
</g>
</svg>
