<svg width="28" height="28" viewBox="0 0 28 28" fill="none" xmlns="http://www.w3.org/2000/svg">
<g id="Active=True" clip-path="url(#clip0_189_4295)">
<path id="Vector" d="M19.8335 0H9.3335V18.6667H25.6668V5.83333C25.6668 4.28624 25.0522 2.80251 23.9583 1.70854C22.8643 0.614582 21.3806 0 19.8335 0ZM5.12766 18.7378C5.35994 18.6904 5.59642 18.6665 5.8335 18.6667H7.00016V0.116667C5.68257 0.385619 4.49837 1.10155 3.64797 2.14328C2.79758 3.18501 2.33322 4.48857 2.3335 5.83333V19.8625C3.14906 19.2471 4.11321 18.8591 5.12766 18.7378ZM25.6668 21H5.8335C4.90524 21 4.015 21.3687 3.35862 22.0251C2.70225 22.6815 2.3335 23.5717 2.3335 24.5C2.3335 25.4283 2.70225 26.3185 3.35862 26.9749C4.015 27.6313 4.90524 28 5.8335 28H19.8335C20.5995 28 21.3581 27.8491 22.0658 27.556C22.7736 27.2628 23.4166 26.8331 23.9583 26.2915C24.5 25.7498 24.9296 25.1067 25.2228 24.399C25.5159 23.6913 25.6668 22.9327 25.6668 22.1667V21Z" fill="#F9FCFF"/>
</g>
<defs>
<clipPath id="clip0_189_4295">
<rect width="28" height="28" fill="white"/>
</clipPath>
</defs>
</svg>
