<svg width="28" height="28" viewBox="0 0 28 28" fill="none" xmlns="http://www.w3.org/2000/svg">
<g id="Active=False" clip-path="url(#clip0_189_4297)">
<path id="Vector" d="M19.8335 0H8.16683C6.6203 0.0018525 5.13765 0.617029 4.04409 1.71059C2.95053 2.80415 2.33535 4.28681 2.3335 5.83333V23.3333C2.3335 24.571 2.82516 25.758 3.70033 26.6332C4.5755 27.5083 5.76249 28 7.00016 28H19.8335C21.38 27.9981 22.8627 27.383 23.9562 26.2894C25.0498 25.1959 25.665 23.7132 25.6668 22.1667V5.83333C25.665 4.28681 25.0498 2.80415 23.9562 1.71059C22.8627 0.617029 21.38 0.0018525 19.8335 0ZM23.3335 5.83333V18.6667H9.3335V2.33333H19.8335C20.7618 2.33333 21.652 2.70208 22.3084 3.35846C22.9647 4.01484 23.3335 4.90508 23.3335 5.83333ZM7.00016 2.534V18.6667C6.18073 18.666 5.3757 18.8821 4.66683 19.2932V5.83333C4.66693 5.10964 4.89137 4.40377 5.30924 3.8129C5.7271 3.22204 6.31786 2.77523 7.00016 2.534ZM19.8335 25.6667H7.00016C6.38132 25.6667 5.78783 25.4208 5.35025 24.9832C4.91266 24.5457 4.66683 23.9522 4.66683 23.3333C4.66683 22.7145 4.91266 22.121 5.35025 21.6834C5.78783 21.2458 6.38132 21 7.00016 21H23.3335V22.1667C23.3335 23.0949 22.9647 23.9852 22.3084 24.6415C21.652 25.2979 20.7618 25.6667 19.8335 25.6667Z" fill="#D7E7F8"/>
</g>
<defs>
<clipPath id="clip0_189_4297">
<rect width="28" height="28" fill="white"/>
</clipPath>
</defs>
</svg>
