<svg width="24" height="24" viewBox="0 0 24 24" fill="none" xmlns="http://www.w3.org/2000/svg">
<g id="Next">
<path id="Layer 6" d="M24 1.71429V22.2857C24 22.7404 23.819 23.1764 23.4967 23.4979C23.1744 23.8194 22.7374 24 22.2816 24H21.1361C20.6803 24 20.2433 23.8194 19.921 23.4979C19.5987 23.1764 19.4177 22.7404 19.4177 22.2857V1.71429C19.4177 1.25963 19.5987 0.823594 19.921 0.502103C20.2433 0.180612 20.6803 0 21.1361 0H22.2816C22.7374 0 23.1744 0.180612 23.4967 0.502103C23.819 0.823594 24 1.25963 24 1.71429ZM16.1528 10.1486L3.65462 0.571429C3.32067 0.320402 2.92422 0.165335 2.50824 0.12303C2.09225 0.0807243 1.6726 0.152794 1.29474 0.331429C0.901685 0.520807 0.571035 0.818257 0.341704 1.18877C0.112373 1.55929 -0.00609572 1.98744 0.000241572 2.42286V21.5771C-0.00243443 22.0016 0.113434 22.4185 0.334864 22.781C0.556293 23.1435 0.874534 23.4373 1.25392 23.6295C1.63331 23.8217 2.05886 23.9047 2.48288 23.8692C2.9069 23.8337 3.31263 23.6812 3.65462 23.4286L16.1528 13.8629C16.438 13.644 16.669 13.3628 16.828 13.0408C16.9869 12.7188 17.0696 12.3646 17.0696 12.0057C17.0696 11.6468 16.9869 11.2927 16.828 10.9707C16.669 10.6487 16.438 10.3674 16.1528 10.1486Z" fill="#2D71AE"/>
</g>
</svg>
