<svg width="48" height="15" viewBox="0 0 48 15" fill="none" xmlns="http://www.w3.org/2000/svg">
<g id="Payme" opacity="0.9" clip-path="url(#clip0_837_1465)">
<g id="Layer 1-2">
<path id="Vector" d="M8.60821 2.32567C8.44538 2.06255 8.23365 1.83348 7.98353 1.65084C7.73155 1.47811 7.45481 1.34439 7.16322 1.25276C6.84623 1.14937 6.51934 1.08003 6.1875 1.0466C5.79994 1.00821 5.41053 0.99026 5.02049 0.992117H1.64513C1.32195 0.961781 1.03531 1.1989 1.00497 1.52145C1.00497 1.52702 1.00373 1.53321 1.00373 1.53879V7.05128C1.47178 8.05547 2.24875 8.88321 3.22137 9.41378V8.31364C3.19041 7.95703 3.45415 7.64253 3.81076 7.61157H3.812H4.82485C6.2067 7.61157 7.26103 7.32245 7.98786 6.74421C8.71469 6.16597 9.08368 5.30851 9.09482 4.17245C9.09606 3.84495 9.05768 3.51868 8.98029 3.20046C8.9029 2.89153 8.77784 2.59621 8.60883 2.32629L8.60821 2.32567ZM6.63017 5.14383C6.51254 5.34627 6.33733 5.50972 6.12745 5.61311C5.89962 5.72207 5.65383 5.78708 5.40186 5.80565C5.12512 5.84032 4.84714 5.85703 4.56792 5.85641H3.59593C3.36314 5.85641 3.21765 5.66759 3.21765 5.39085V3.12864C3.20527 2.94291 3.34581 2.78195 3.53154 2.76894C3.55321 2.76771 3.57426 2.76833 3.59531 2.7708H4.5673C4.88243 2.7708 5.1796 2.78009 5.4582 2.79804C5.70708 2.80981 5.95101 2.86986 6.17698 2.97387C6.385 3.06673 6.55897 3.22213 6.67288 3.41962C6.80228 3.68398 6.86109 3.97682 6.845 4.27027C6.85181 4.57487 6.77689 4.87513 6.62893 5.14135V5.14445L6.63017 5.14383ZM3.22446 9.74439C2.39239 9.44412 1.6346 8.96741 1.00373 8.34707V10.9968C0.974634 11.2036 1.11889 11.3949 1.32567 11.4234C1.33062 11.424 1.33619 11.4246 1.34114 11.4253H2.86662C3.27152 11.4253 3.22446 10.9931 3.22446 10.9931V9.74439ZM24.1923 3.87838H22.8761C22.6167 3.86166 22.3827 4.03377 22.3226 4.28699L20.7934 8.49937C20.7934 8.49937 19.4432 4.66154 19.3423 4.36437C19.2834 4.08206 19.0364 3.87838 18.7479 3.87466H17.5363C17.1042 3.87466 17.1042 4.21207 17.1618 4.34394C17.2193 4.47581 18.8767 9.0188 19.5243 10.7572C19.6264 10.9714 19.6976 11.1987 19.7366 11.4321C19.6945 11.663 19.6072 11.8834 19.4803 12.0803C19.4308 12.1638 19.3745 12.2431 19.3113 12.3168C20.56 11.9453 22.0118 10.5919 22.7405 9.13024C23.4767 7.10515 24.4449 4.40462 24.4889 4.26656C24.5359 4.0542 24.5359 3.87838 24.1917 3.87838H24.1923ZM18.3257 12.7285C18.213 12.7254 18.1003 12.7167 17.9883 12.7012C17.8496 12.6808 17.5865 12.7012 17.5865 12.9377V13.9506C17.5865 14.3388 17.7753 14.366 17.8731 14.3926C18.1858 14.4613 18.5052 14.4954 18.8247 14.4942C19.203 14.5041 19.5781 14.4267 19.9217 14.2682C20.2356 14.1097 20.5149 13.8893 20.7421 13.62C20.9996 13.3253 21.2175 12.999 21.3903 12.648C21.5772 12.2747 21.7549 11.8617 21.9233 11.4092L22.119 10.8724C21.7277 11.2606 19.9991 12.8907 18.3251 12.7291L18.3257 12.7285ZM16.334 5.08996C16.2622 4.91971 16.1644 4.76122 16.0437 4.62068C15.9217 4.49067 15.783 4.37738 15.632 4.28327C15.4685 4.17183 15.2945 4.07711 15.1119 3.99972C14.9262 3.92791 14.7355 3.87033 14.5417 3.82761C14.3195 3.7787 14.0935 3.74589 13.8669 3.72979C13.6236 3.70503 13.3518 3.69265 13.0503 3.69265C11.0388 3.69265 9.89347 4.32723 9.61425 5.59639C9.56906 5.77717 9.67864 5.96042 9.85942 6.00624C9.87676 6.01057 9.89409 6.01367 9.91143 6.0149H11.1503C11.4877 6.0149 11.4877 5.91028 11.6158 5.61992C11.6722 5.46205 11.7731 5.32337 11.9062 5.22183C12.2225 5.01753 12.5971 4.92157 12.9729 4.94819C13.3233 4.91228 13.6756 4.99957 13.9684 5.19459C14.1919 5.40323 14.3244 5.69235 14.3362 5.99819C14.3362 6.4167 14.208 6.69344 13.688 6.69344C12.456 6.64949 11.1329 6.78817 10.3869 7.21659C9.63964 7.67286 9.19388 8.49442 9.21926 9.36983C9.2106 9.70476 9.2787 10.0372 9.41862 10.3418C9.54987 10.6068 9.74055 10.8377 9.97581 11.0166C10.2222 11.2179 10.507 11.3671 10.8128 11.4556C11.1583 11.5491 11.5149 11.5943 11.8728 11.5906C12.3544 11.598 12.8336 11.5299 13.2936 11.3881C13.7004 11.2216 14.0848 11.0049 14.4377 10.7436V10.9801C14.4377 11.2129 14.5083 11.4222 14.7751 11.4222H16.2096C16.4999 11.4222 16.5674 11.216 16.5674 10.9597V6.54114C16.5693 6.26564 16.5501 5.99014 16.5099 5.71774C16.4783 5.50167 16.4188 5.29117 16.334 5.08996ZM14.3727 9.4305C14.3727 9.4305 14.0012 10.2069 12.685 10.2069C12.3693 10.2211 12.0572 10.135 11.7941 9.96045C11.5589 9.77782 11.4313 9.48808 11.4567 9.19091C11.427 8.78911 11.6486 8.41022 12.0139 8.23934C12.5463 8.03504 13.1147 7.9397 13.6849 7.95889C14.0186 7.90874 14.33 8.13843 14.3801 8.47213C14.3851 8.5037 14.3869 8.53528 14.3869 8.56685L14.3733 9.43112L14.3727 9.4305Z" fill="#333333"/>
<path id="Vector_2" d="M47.1784 6.58904C47.5176 7.13447 47.5176 7.82539 47.1784 8.37143C46.841 8.88467 45.001 10.8491 44.3936 11.48C43.8668 12.0266 43.1548 12.5801 42.4496 12.5801H27.8375C25.8595 12.5801 25.7412 11.9053 25.7412 10.3996V4.25997C25.7412 2.71716 26.1969 2.26831 27.5502 2.26831H42.4831C43.182 2.26831 43.8061 2.62615 44.5082 3.34865C45.1223 3.96651 46.9351 6.22438 47.1784 6.58904Z" fill="#33CCCC"/>
<path id="Vector_3" d="M29.0592 4.64094V4.6038C29.0592 4.40445 29.0592 4.21252 28.7218 4.21252H27.4966C27.2099 4.21252 27.1963 4.36792 27.1963 4.61061V6.2308C27.6798 5.55784 28.3187 5.01241 29.0592 4.64094Z" fill="white"/>
<path id="Vector_4" d="M37.2655 10.4999V10.412V6.50357C37.2655 4.86789 36.543 4.04944 35.0986 4.04944C34.6968 4.05439 34.3037 4.1714 33.9644 4.38685C33.5905 4.62025 33.2568 4.91185 32.9757 5.25112C32.8481 4.88461 32.6011 4.57196 32.2736 4.36332C31.9015 4.1584 31.4799 4.05872 31.0552 4.07668C30.4305 4.07916 29.8238 4.28779 29.3304 4.67102C29.2227 4.77874 27.1939 6.35869 27.1939 8.00613V10.5073C27.1939 10.5847 27.1536 10.8887 27.4941 10.8887H28.7664C29.1614 10.8887 29.1242 10.6287 29.1242 10.5209V6.47013C29.3366 6.18349 29.7724 5.49814 30.4912 5.49814C30.7252 5.47709 30.9524 5.5842 31.0856 5.77859C31.2298 6.06648 31.293 6.38903 31.2676 6.71035V9.86654V10.5147C31.2676 10.5921 31.2273 10.8961 31.5678 10.8961H32.8271C33.2221 10.8961 33.1849 10.6361 33.1849 10.5284V10.4404V6.45651C33.4146 6.16987 33.8598 5.48452 34.5519 5.48452C34.7884 5.46533 35.0181 5.57181 35.1562 5.76497C35.3029 6.05224 35.3673 6.37479 35.3419 6.69673V9.85292V10.5011C35.3419 10.5785 35.3017 10.8825 35.6422 10.8825H36.9144C37.3125 10.8621 37.2655 10.6057 37.2655 10.5011V10.4999Z" fill="white"/>
<path id="Vector_5" d="M44.2821 8.91109C43.8382 10.1041 42.6712 10.8712 41.3996 10.8049C39.4556 10.8049 38.1592 9.4819 38.1592 7.49706C38.1592 5.51221 39.5094 4.1217 41.3321 4.1217C43.1547 4.1217 44.37 5.38406 44.4474 7.41967C44.4474 7.67969 44.383 7.90938 44.0562 7.90938H39.9317C39.9589 8.99962 40.4821 9.59706 41.4132 9.59706C41.9184 9.60944 42.3846 9.32775 42.6081 8.87456C42.6954 8.74703 42.8415 8.67212 42.9963 8.67521H44.0593C44.1763 8.66964 44.2759 8.76003 44.2815 8.87766C44.2821 8.89376 44.2815 8.90923 44.2784 8.92533L44.2815 8.91171L44.2821 8.91109ZM41.3389 5.38034C40.5656 5.38034 40.0425 5.91711 39.928 6.80119H42.696C42.6254 6.02792 42.2063 5.38034 41.3389 5.38034Z" fill="white"/>
</g>
</g>
<defs>
<clipPath id="clip0_837_1465">
<rect width="47" height="14" fill="white" transform="translate(0.5 0.5)"/>
</clipPath>
</defs>
</svg>
