<svg width="20" height="20" viewBox="0 0 20 20" fill="none" xmlns="http://www.w3.org/2000/svg">
<g id="phone-flip 1" clip-path="url(#clip0_189_4596)">
<path id="Vector" d="M1.52179 1.51702L2.39679 0.758692C3.40512 -0.249642 5.03846 -0.249642 6.04679 0.758692C6.07179 0.783692 7.61346 2.79202 7.61346 2.79202C8.56346 3.79203 8.56346 5.36703 7.61346 6.35869L6.64679 7.57536C7.86346 10.3337 9.75513 12.2337 12.4218 13.367L13.6385 12.392C14.6301 11.4337 16.2135 11.4337 17.2051 12.392C17.2051 12.392 19.2135 13.9337 19.2385 13.9587C20.2468 14.967 20.2468 16.6004 19.2801 17.567L18.4468 18.5254C17.4885 19.4837 16.1968 20.0087 14.7968 20.0087C8.43013 20.0087 -0.00320816 11.567 -0.00320816 5.20869C-0.00320816 3.81703 0.521791 2.51703 1.52179 1.52536V1.51702ZM14.7968 18.3337C15.7468 18.3337 16.6218 17.9837 17.2218 17.3754L18.0551 16.417C18.3968 16.0754 18.4135 15.517 18.0885 15.1587C18.0885 15.1587 16.0968 13.6254 16.0718 13.6004C15.7301 13.2587 15.1301 13.2587 14.7801 13.6004C14.7551 13.6254 13.0801 14.967 13.0801 14.967C12.8468 15.1504 12.5385 15.2004 12.2635 15.092C8.81346 13.7754 6.33846 11.3087 4.91346 7.75036C4.80513 7.47536 4.84679 7.15869 5.03846 6.91703C5.03846 6.91703 6.38013 5.23369 6.39679 5.21703C6.75513 4.85869 6.75513 4.28369 6.39679 3.92536C6.37179 3.90036 4.83846 1.90869 4.83846 1.90869C4.48012 1.58369 3.92179 1.59202 3.53846 1.97536L2.66346 2.73369C2.02179 3.37536 1.66346 4.25036 1.66346 5.20036C1.66346 11.0004 9.80513 18.3337 14.7968 18.3337Z" fill="#A1A1A1"/>
</g>
<defs>
<clipPath id="clip0_189_4596">
<rect width="20" height="20" fill="white"/>
</clipPath>
</defs>
</svg>
