<svg width="56" height="56" viewBox="0 0 56 56" fill="none" xmlns="http://www.w3.org/2000/svg">
<g id="Positive=False">
<path id="Vector" d="M28 0C12.5364 0 0 12.5364 0 28C0 43.4636 12.5364 56 28 56C43.4636 56 56 43.4636 56 28C56 12.5364 43.4636 0 28 0ZM25.8784 38.1818C25.8784 39.5856 24.7367 40.7273 23.3329 40.7273H19.0909C17.6871 40.7273 16.5455 39.5856 16.5455 38.1818V17.8182C16.5455 16.4144 17.6871 15.2727 19.0909 15.2727H23.3329C24.7367 15.2727 25.8784 16.4144 25.8784 17.8182V38.1818ZM39.4545 38.1818C39.4545 39.5856 38.3129 40.7273 36.9091 40.7273H32.6671C31.2633 40.7273 30.1216 39.5856 30.1216 38.1818V17.8182C30.1216 16.4144 31.2633 15.2727 32.6671 15.2727H36.9091C38.3129 15.2727 39.4545 16.4144 39.4545 17.8182V38.1818Z" fill="#202020"/>
</g>
</svg>
