<svg width="46" height="46" viewBox="0 0 46 46" fill="none" xmlns="http://www.w3.org/2000/svg">
<g id="Vector">
<path id="Vector_2" d="M23 0C10.2977 0 0 10.2977 0 23C0 35.7023 10.2977 46 23 46C35.7023 46 46 35.7023 46 23C46 10.2977 35.7023 0 23 0ZM33.8372 25.9586L19.7601 34.086C19.2249 34.3944 18.6384 34.5491 18.0519 34.5491C17.4654 34.5491 16.8789 34.3944 16.3436 34.086C15.8218 33.7889 15.3885 33.3583 15.0883 32.8383C14.788 32.3183 14.6317 31.7278 14.6353 31.1274V14.8726C14.6353 13.638 15.2741 12.5319 16.3436 11.914C17.4131 11.2961 18.6896 11.2961 19.7591 11.914L33.8361 20.0414C34.9056 20.6592 35.5444 21.7643 35.5444 23C35.5444 24.2357 34.9067 25.3408 33.8372 25.9586Z" fill="#2D71AE"/>
</g>
</svg>
