<svg width="30" height="30" viewBox="0 0 30 30" fill="none" xmlns="http://www.w3.org/2000/svg">
<g id="Vector">
<path id="Vector_2" d="M15 0C6.71591 0 0 6.71591 0 15C0 23.2841 6.71591 30 15 30C23.2841 30 30 23.2841 30 15C30 6.71591 23.2841 0 15 0ZM22.0677 16.9295L12.887 22.23C12.538 22.4311 12.1555 22.532 11.773 22.532C11.3905 22.532 11.008 22.4311 10.6589 22.23C10.3186 22.0363 10.036 21.7554 9.84017 21.4163C9.64437 21.0772 9.54241 20.692 9.54477 20.3005V9.69955C9.54477 8.89432 9.96136 8.17295 10.6589 7.77C11.3564 7.36705 12.1889 7.36705 12.8864 7.77L22.067 13.0705C22.7645 13.4734 23.1811 14.1941 23.1811 15C23.1811 15.8059 22.7652 16.5266 22.0677 16.9295Z" fill="#FF9E30"/>
</g>
</svg>
