<svg width="56" height="56" viewBox="0 0 56 56" fill="none" xmlns="http://www.w3.org/2000/svg">
<g id="Positive=True">
<path id="Vector" d="M28 0C12.5364 0 0 12.5364 0 28C0 43.4636 12.5364 56 28 56C43.4636 56 56 43.4636 56 28C56 12.5364 43.4636 0 28 0ZM41.1931 31.6018L24.0558 41.496C23.4042 41.8715 22.6902 42.0598 21.9762 42.0598C21.2622 42.0598 20.5482 41.8715 19.8965 41.496C19.2613 41.1344 18.7338 40.6101 18.3683 39.9771C18.0028 39.3441 17.8125 38.6251 17.8169 37.8942V18.1058C17.8169 16.6027 18.5945 15.2562 19.8965 14.504C21.1985 13.7518 22.7525 13.7518 24.0545 14.504L41.1918 24.3982C42.4938 25.1504 43.2715 26.4956 43.2715 28C43.2715 29.5044 42.4951 30.8496 41.1931 31.6018Z" fill="#202020"/>
</g>
</svg>
