<svg width="24" height="24" viewBox="0 0 24 24" fill="none" xmlns="http://www.w3.org/2000/svg">
<g id="Next">
<path id="Layer 6" d="M-1.90735e-06 1.71429V22.2857C-1.90735e-06 22.7404 0.181042 23.1764 0.503296 23.4979C0.82555 23.8194 1.26262 24 1.71836 24H2.86393C3.31967 24 3.75674 23.8194 4.07899 23.4979C4.40125 23.1764 4.58229 22.7404 4.58229 22.2857V1.71429C4.58229 1.25963 4.40125 0.823594 4.07899 0.502103C3.75674 0.180612 3.31967 0 2.86393 0H1.71836C1.26262 0 0.82555 0.180612 0.503296 0.502103C0.181042 0.823594 -1.90735e-06 1.25963 -1.90735e-06 1.71429ZM7.84718 10.1486L20.3454 0.571429C20.6793 0.320402 21.0758 0.165335 21.4918 0.12303C21.9077 0.0807243 22.3274 0.152794 22.7053 0.331429C23.0983 0.520807 23.429 0.818257 23.6583 1.18877C23.8876 1.55929 24.0061 1.98744 23.9998 2.42286V21.5771C24.0024 22.0016 23.8866 22.4185 23.6651 22.781C23.4437 23.1435 23.1255 23.4373 22.7461 23.6295C22.3667 23.8217 21.9411 23.9047 21.5171 23.8692C21.0931 23.8337 20.6874 23.6812 20.3454 23.4286L7.84718 13.8629C7.56198 13.644 7.331 13.3628 7.17205 13.0408C7.0131 12.7188 6.93043 12.3646 6.93043 12.0057C6.93043 11.6468 7.0131 11.2927 7.17205 10.9707C7.331 10.6487 7.56198 10.3674 7.84718 10.1486Z" fill="#2D71AE"/>
</g>
</svg>
