<svg width="20" height="20" viewBox="0 0 20 20" fill="none" xmlns="http://www.w3.org/2000/svg">
<g id="Seen=True">
<g id="Vector">
<path d="M19.8507 9.3175C19.1191 7.7175 16.2499 2.5 9.99989 2.5C3.74989 2.5 0.880726 7.7175 0.149059 9.3175C0.0508413 9.53192 0 9.76499 0 10.0008C0 10.2367 0.0508413 10.4697 0.149059 10.6842C0.880726 12.2825 3.74989 17.5 9.99989 17.5C16.2499 17.5 19.1191 12.2825 19.8507 10.6825C19.9488 10.4683 19.9995 10.2355 19.9995 10C19.9995 9.76446 19.9488 9.53168 19.8507 9.3175ZM9.99989 15.8333C4.74406 15.8333 2.29156 11.3617 1.66656 10.0092C2.29156 8.63833 4.74406 4.16667 9.99989 4.16667C15.2432 4.16667 17.6966 8.61917 18.3332 10C17.6966 11.3808 15.2432 15.8333 9.99989 15.8333Z" fill="#A1A1A1"/>
<path d="M9.9999 5.83333C9.17581 5.83333 8.37022 6.0777 7.68502 6.53554C6.99981 6.99338 6.46576 7.64413 6.1504 8.40549C5.83503 9.16685 5.75252 10.0046 5.91329 10.8129C6.07406 11.6211 6.4709 12.3636 7.05362 12.9463C7.63633 13.529 8.37876 13.9258 9.18702 14.0866C9.99527 14.2474 10.8331 14.1649 11.5944 13.8495C12.3558 13.5341 13.0065 13.0001 13.4644 12.3149C13.9222 11.6297 14.1666 10.8241 14.1666 10C14.1652 8.89534 13.7258 7.8363 12.9447 7.05518C12.1636 6.27407 11.1046 5.83466 9.9999 5.83333ZM9.9999 12.5C9.50544 12.5 9.02209 12.3534 8.61097 12.0787C8.19985 11.804 7.87941 11.4135 7.6902 10.9567C7.50098 10.4999 7.45147 9.99723 7.54793 9.51227C7.64439 9.02732 7.8825 8.58186 8.23213 8.23223C8.58176 7.8826 9.02722 7.6445 9.51217 7.54804C9.99712 7.45157 10.4998 7.50108 10.9566 7.6903C11.4134 7.87952 11.8039 8.19995 12.0786 8.61107C12.3533 9.0222 12.4999 9.50555 12.4999 10C12.4999 10.663 12.2365 11.2989 11.7677 11.7678C11.2988 12.2366 10.6629 12.5 9.9999 12.5Z" fill="#A1A1A1"/>
</g>
</g>
</svg>
