<svg width="20" height="20" viewBox="0 0 20 20" fill="none" xmlns="http://www.w3.org/2000/svg">
<g id="Seen=False">
<path id="Vector" d="M19.8507 9.31861C19.0456 7.57254 17.8664 6.02488 16.3966 4.78528L18.9232 2.25861L17.7441 1.07861L14.9999 3.82028C13.481 2.94171 11.7545 2.48619 9.99989 2.50111C3.74989 2.50111 0.880726 7.71861 0.149059 9.31861C0.0508413 9.53303 0 9.7661 0 10.0019C0 10.2378 0.0508413 10.4709 0.149059 10.6853C0.954173 12.4314 2.13341 13.979 3.60323 15.2186L1.07739 17.7453L2.25573 18.9236L4.99989 16.1819C6.51876 17.0605 8.2453 17.516 9.99989 17.5011C16.2499 17.5011 19.1191 12.2836 19.8507 10.6836C19.9488 10.4694 19.9995 10.2367 19.9995 10.0011C19.9995 9.76557 19.9488 9.53279 19.8507 9.31861ZM1.66656 10.0103C2.29156 8.63945 4.74406 4.16778 9.99989 4.16778C11.3079 4.16013 12.5988 4.46528 13.7649 5.05778L12.2941 6.52861C11.494 5.99745 10.5348 5.75944 9.57926 5.85498C8.62369 5.95053 7.73062 6.37373 7.05156 7.05278C6.37251 7.73183 5.94931 8.62491 5.85377 9.58047C5.75822 10.536 5.99623 11.4952 6.52739 12.2953L4.79489 14.0278C3.46187 12.9423 2.39229 11.5687 1.66656 10.0103ZM12.4999 10.0011C12.4999 10.6642 12.2365 11.3 11.7677 11.7689C11.2988 12.2377 10.6629 12.5011 9.99989 12.5011C9.62866 12.4997 9.26256 12.4142 8.92906 12.2511L12.2499 8.93028C12.413 9.26378 12.4985 9.62987 12.4999 10.0011ZM7.49989 10.0011C7.49989 9.33807 7.76329 8.70219 8.23213 8.23335C8.70097 7.7645 9.33685 7.50111 9.99989 7.50111C10.3711 7.50255 10.7372 7.58802 11.0707 7.75111L7.74989 11.0719C7.5868 10.7384 7.50133 10.3724 7.49989 10.0011ZM9.99989 15.8344C8.6919 15.8421 7.40102 15.5369 6.23489 14.9444L7.70573 13.4736C8.50578 14.0048 9.46497 14.2428 10.4205 14.1472C11.3761 14.0517 12.2692 13.6285 12.9482 12.9494C13.6273 12.2704 14.0505 11.3773 14.146 10.4218C14.2416 9.46619 14.0036 8.507 13.4724 7.70695L15.2041 5.97528C16.5397 7.06179 17.6099 8.43866 18.3332 10.0011C17.6966 11.3819 15.2432 15.8344 9.99989 15.8344Z" fill="#A1A1A1"/>
</g>
</svg>
