<svg width="28" height="28" viewBox="0 0 28 28" fill="none" xmlns="http://www.w3.org/2000/svg">
<g id="Active=False" clip-path="url(#clip0_189_4318)">
<path id="Vector" d="M25.5683 10.1821L4.62551 0.329574C3.44251 -0.245593 2.04835 -0.0472595 1.06951 0.832407C0.0883482 1.71557 -0.252318 3.08757 0.200348 4.32657C0.220182 4.37674 5.34651 14.0052 5.34651 14.0052C5.34651 14.0052 0.314682 23.6314 0.297182 23.6804C-0.154318 24.9206 0.189848 26.2902 1.17101 27.1722C1.77885 27.7171 2.54651 27.9982 3.31885 27.9982C3.79602 27.9982 4.27435 27.8909 4.72001 27.6727L25.5707 17.8284C27.0698 17.1249 28.0008 15.6596 27.9997 14.0041C27.9997 12.3474 27.0652 10.8821 25.5683 10.1821ZM2.37035 3.46207C2.22801 2.97791 2.53135 2.65707 2.63052 2.56607C2.73435 2.47391 3.11351 2.18807 3.60818 2.43074C3.61401 2.43307 24.5778 12.2949 24.5778 12.2949C24.8567 12.4256 25.0888 12.6099 25.2673 12.8339H7.36718L2.37035 3.46207ZM24.5767 15.7167L3.70735 25.5704C3.21151 25.8142 2.83351 25.5296 2.72968 25.4351C2.62935 25.3464 2.32601 25.0232 2.46952 24.5379L7.37185 15.1672H25.2743C25.0958 15.3947 24.859 15.5837 24.5767 15.7167Z" fill="#D7E7F8"/>
</g>
<defs>
<clipPath id="clip0_189_4318">
<rect width="28" height="28" fill="white"/>
</clipPath>
</defs>
</svg>
