<svg width="28" height="28" viewBox="0 0 28 28" fill="none" xmlns="http://www.w3.org/2000/svg">
<g id="Active=True" clip-path="url(#clip0_189_4316)">
<path id="Vector" d="M0.200348 4.32657C-0.252318 3.08757 0.0883482 1.71557 1.06951 0.832407C2.04835 -0.0472595 3.44251 -0.245593 4.62551 0.329574L25.7305 10.1809C26.8622 10.7106 27.6718 11.6777 27.9997 12.8327H4.72235L0.266848 4.47474C0.242348 4.42691 0.220182 4.37674 0.200348 4.32657ZM4.73868 15.1672L0.360182 23.5381C0.335681 23.5847 0.314682 23.6314 0.297182 23.6804C-0.154318 24.9206 0.189848 26.2902 1.17101 27.1722C1.77885 27.7171 2.54651 27.9982 3.31885 27.9982C3.79602 27.9982 4.27435 27.8909 4.72001 27.6727L25.7328 17.8284C26.868 17.2964 27.6765 16.3257 28.002 15.1684H4.73868V15.1672Z" fill="white"/>
</g>
<defs>
<clipPath id="clip0_189_4316">
<rect width="28" height="28" fill="white"/>
</clipPath>
</defs>
</svg>
