<svg width="28" height="28" viewBox="0 0 28 28" fill="none" xmlns="http://www.w3.org/2000/svg">
<g id="Active=False" clip-path="url(#clip0_189_4323)">
<path id="Vector" d="M23.9097 9.29747L12.7797 1.1308C11.9104 0.494253 10.8818 0.110897 9.80789 0.0232442C8.73403 -0.0644087 7.65686 0.147067 6.69584 0.634221C5.73483 1.12137 4.92751 1.86517 4.3634 2.78314C3.7993 3.7011 3.50045 4.75737 3.5 5.8348V22.1681C3.50019 23.2461 3.79906 24.3029 4.36342 25.2212C4.92779 26.1396 5.73558 26.8836 6.69716 27.3708C7.65873 27.8579 8.73648 28.0691 9.81079 27.9809C10.8851 27.8926 11.914 27.5085 12.7832 26.871L23.9132 18.7043C24.652 18.1625 25.2528 17.4543 25.6669 16.637C26.081 15.8198 26.2968 14.9165 26.2968 14.0003C26.2968 13.0841 26.081 12.1808 25.6669 11.3636C25.2528 10.5463 24.652 9.83811 23.9132 9.2963L23.9097 9.29747ZM22.5283 16.8225L11.3983 24.9891C10.8769 25.3702 10.2601 25.5995 9.61633 25.6518C8.97257 25.704 8.32691 25.5771 7.75083 25.285C7.17474 24.993 6.6907 24.5473 6.35227 23.9972C6.01385 23.447 5.83424 22.814 5.83333 22.1681V5.8348C5.82686 5.18771 6.00308 4.55192 6.34174 4.00048C6.6804 3.44905 7.16777 3.00434 7.74783 2.71747C8.24121 2.46651 8.7868 2.33541 9.34033 2.3348C10.0822 2.33764 10.8036 2.57851 11.3983 3.02197L22.5283 11.1886C22.9711 11.5138 23.3311 11.9386 23.5792 12.4287C23.8273 12.9187 23.9566 13.4603 23.9566 14.0096C23.9566 14.5589 23.8273 15.1005 23.5792 15.5906C23.3311 16.0807 22.9711 16.5055 22.5283 16.8306V16.8225Z" fill="#D7E7F8"/>
</g>
<defs>
<clipPath id="clip0_189_4323">
<rect width="28" height="28" fill="white"/>
</clipPath>
</defs>
</svg>
