<svg width="28" height="28" viewBox="0 0 28 28" fill="none" xmlns="http://www.w3.org/2000/svg">
<g id="Active=True" clip-path="url(#clip0_189_4321)">
<path id="Vector" d="M23.9073 9.29828L12.7797 1.13862C11.9105 0.502183 10.8821 0.118849 9.80848 0.0311043C8.73482 -0.0566401 7.65783 0.154633 6.69689 0.641506C5.73595 1.12838 4.9286 1.87183 4.36432 2.78946C3.80005 3.70709 3.50089 4.76304 3.50001 5.84028V22.1678C3.49833 23.2461 3.79593 24.3037 4.35966 25.2229C4.9234 26.1421 5.73117 26.8868 6.69305 27.3741C7.65493 27.8615 8.73318 28.0724 9.80779 27.9832C10.8824 27.8941 11.9112 27.5086 12.7797 26.8695L23.9073 18.7098C24.6457 18.1679 25.2461 17.4598 25.6599 16.6428C26.0738 15.8258 26.2894 14.9228 26.2894 14.007C26.2894 13.0911 26.0738 12.1881 25.6599 11.3711C25.2461 10.5541 24.6457 9.84597 23.9073 9.30412V9.29828Z" fill="#F9FCFF"/>
</g>
<defs>
<clipPath id="clip0_189_4321">
<rect width="28" height="28" fill="white"/>
</clipPath>
</defs>
</svg>
