<svg width="26" height="24" viewBox="0 0 26 24" fill="none" xmlns="http://www.w3.org/2000/svg">
<g id="Active=False">
<path id="Vector" d="M19.0507 15.0077L18.8625 15.1912L18.907 15.4503L20.2103 23.0488C20.2103 23.0488 20.2103 23.0488 20.2103 23.0489C20.2224 23.1198 20.2145 23.1928 20.1874 23.2595C20.1602 23.3262 20.115 23.384 20.0567 23.4263C19.9984 23.4686 19.9294 23.4938 19.8576 23.499C19.7858 23.5042 19.7139 23.4892 19.6502 23.4557L19.6501 23.4556L12.8259 19.8681L12.5933 19.7458L12.3606 19.8681L5.53733 23.4547L5.53728 23.4548C5.47353 23.4883 5.40167 23.5033 5.32984 23.4981C5.258 23.4929 5.18904 23.4677 5.13077 23.4254C5.07249 23.3831 5.02723 23.3253 5.00008 23.2586C4.97293 23.1919 4.96499 23.1189 4.97716 23.0479L6.28049 15.4494L6.32494 15.1903L6.13664 15.0068L0.616677 9.62768L0.616643 9.62765C0.565022 9.57735 0.528512 9.51361 0.511244 9.44364L0.0258074 9.56344L0.511244 9.44364C0.493976 9.37367 0.496641 9.30027 0.518937 9.23173L0.0456899 9.07777L0.518937 9.23173C0.541233 9.16319 0.582269 9.10227 0.6374 9.05585L0.315481 8.6735L0.637402 9.05585C0.692534 9.00943 0.759559 8.97938 0.830889 8.96908L0.831315 8.96902L8.45914 7.86148L8.71933 7.8237L8.83568 7.58793L12.2469 0.675128L12.2469 0.675109C12.2922 0.583334 12.4116 0.5 12.5933 0.5C12.7749 0.5 12.8944 0.583334 12.9397 0.675109L12.9397 0.675128L16.3509 7.58793L16.4672 7.8237L16.7274 7.86148L24.3537 8.96879C24.3539 8.96882 24.354 8.96884 24.3542 8.96887C24.4254 8.97954 24.4922 9.00978 24.5471 9.05624L24.8699 8.6744L24.5471 9.05624C24.6022 9.10281 24.6432 9.16382 24.6655 9.23242C24.6878 9.30102 24.6906 9.37448 24.6734 9.44454C24.6563 9.51435 24.6202 9.57804 24.569 9.6285C24.5689 9.62868 24.5687 9.62887 24.5685 9.62906L19.0507 15.0077Z" stroke="#FF9E30"/>
</g>
</svg>
