<svg width="26" height="24" viewBox="0 0 26 24" fill="none" xmlns="http://www.w3.org/2000/svg">
<g id="Active=True">
<path id="Vector" d="M24.9188 9.98577L19.3998 15.3657L20.7031 22.9643C20.731 23.1273 20.7128 23.2948 20.6505 23.4479C20.5882 23.601 20.4843 23.7337 20.3505 23.8308C20.2168 23.928 20.0585 23.9858 19.8936 23.9977C19.7287 24.0096 19.5638 23.9751 19.4175 23.8982L12.5933 20.3107L5.76997 23.8973C5.62364 23.9743 5.45871 24.0087 5.29382 23.9968C5.12894 23.9849 4.97067 23.9271 4.83692 23.8299C4.70316 23.7328 4.59926 23.6001 4.53695 23.447C4.47464 23.2939 4.45642 23.1264 4.48434 22.9634L5.78769 15.3649L0.267723 9.98577C0.149241 9.87034 0.0654408 9.72404 0.0258074 9.56344C-0.013826 9.40284 -0.00770925 9.23435 0.0434652 9.07705C0.0946397 8.91974 0.188828 8.77991 0.315368 8.67337C0.441909 8.56683 0.595747 8.49784 0.75947 8.47421L8.3873 7.36667L11.7985 0.453869C12.0971 -0.15129 13.0895 -0.15129 13.388 0.453869L16.7993 7.36667L24.4271 8.47421C24.5904 8.49846 24.7438 8.56779 24.8699 8.6744C24.996 8.78102 25.0899 8.9207 25.141 9.07773C25.1921 9.23477 25.1983 9.40295 25.1591 9.56336C25.1199 9.72377 25.0367 9.87006 24.9188 9.98577Z" fill="#FF9E30"/>
</g>
</svg>
