<svg width="20" height="20" viewBox="0 0 20 20" fill="none" xmlns="http://www.w3.org/2000/svg">
<g id="Telegram" opacity="0.8" clip-path="url(#clip0_638_1786)">
<path id="Vector" d="M10 0C15.523 0 20 4.47696 20 10C20 15.523 15.523 20 10 20C4.47696 20 0 15.523 0 10C0 4.47696 4.47696 0 10 0ZM13.4496 14.0761C13.6335 13.5117 14.4952 7.88739 14.6017 6.77913C14.6339 6.44348 14.5278 6.22043 14.32 6.12087C14.0687 6 13.6965 6.06043 13.2648 6.21609C12.6726 6.42957 5.10217 9.64391 4.66478 9.83C4.25 10.0061 3.85783 10.1983 3.85783 10.4765C3.85783 10.6722 3.97391 10.7822 4.29391 10.8965C4.62696 11.0152 5.46565 11.2696 5.96087 11.4061C6.43783 11.5378 6.98087 11.4235 7.28522 11.2343C7.60783 11.0339 11.3309 8.54261 11.5983 8.32435C11.8652 8.10609 12.0783 8.38565 11.86 8.60435C11.6417 8.82261 9.08609 11.303 8.74913 11.6465C8.34 12.0635 8.63043 12.4957 8.90478 12.6687C9.21826 12.8661 11.4726 14.3783 11.8122 14.6209C12.1517 14.8635 12.4961 14.9735 12.8113 14.9735C13.1265 14.9735 13.2926 14.5583 13.4496 14.0761Z" fill="#F9FFFD"/>
</g>
<defs>
<clipPath id="clip0_638_1786">
<rect width="20" height="20" fill="white"/>
</clipPath>
</defs>
</svg>
