<svg width="30" height="30" viewBox="0 0 30 30" fill="none" xmlns="http://www.w3.org/2000/svg">
<g id="Active=False" opacity="0.5">
<path id="Layer 18" d="M26.25 5.62506H19.5938C19.3786 4.56542 18.8037 3.61274 17.9665 2.92846C17.1293 2.24417 16.0813 1.87036 15 1.87036C13.9187 1.87036 12.8707 2.24417 12.0335 2.92846C11.1963 3.61274 10.6214 4.56542 10.4063 5.62506H3.75C3.50136 5.62506 3.2629 5.72383 3.08709 5.89965C2.91127 6.07546 2.8125 6.31392 2.8125 6.56256C2.8125 6.8112 2.91127 7.04966 3.08709 7.22547C3.2629 7.40129 3.50136 7.50006 3.75 7.50006H5.625V23.4376C5.625 24.6808 6.11886 25.873 6.99794 26.7521C7.87701 27.6312 9.0693 28.1251 10.3125 28.1251H19.6875C20.9307 28.1251 22.123 27.6312 23.0021 26.7521C23.8811 25.873 24.375 24.6808 24.375 23.4376V7.50006H26.25C26.4986 7.50006 26.7371 7.40129 26.9129 7.22547C27.0887 7.04966 27.1875 6.8112 27.1875 6.56256C27.1875 6.31392 27.0887 6.07546 26.9129 5.89965C26.7371 5.72383 26.4986 5.62506 26.25 5.62506ZM15 3.75006C15.5803 3.75169 16.1458 3.93276 16.6191 4.26844C17.0924 4.60412 17.4503 5.07798 17.6437 5.62506H12.3563C12.5497 5.07798 12.9076 4.60412 13.3809 4.26844C13.8542 3.93276 14.4197 3.75169 15 3.75006ZM13.125 20.6251C13.125 20.8737 13.0262 21.1122 12.8504 21.288C12.6746 21.4638 12.4361 21.5626 12.1875 21.5626C11.9389 21.5626 11.7004 21.4638 11.5246 21.288C11.3488 21.1122 11.25 20.8737 11.25 20.6251V13.1251C11.25 12.8764 11.3488 12.638 11.5246 12.4621C11.7004 12.2863 11.9389 12.1876 12.1875 12.1876C12.4361 12.1876 12.6746 12.2863 12.8504 12.4621C13.0262 12.638 13.125 12.8764 13.125 13.1251V20.6251ZM18.75 20.6251C18.75 20.8737 18.6512 21.1122 18.4754 21.288C18.2996 21.4638 18.0611 21.5626 17.8125 21.5626C17.5639 21.5626 17.3254 21.4638 17.1496 21.288C16.9738 21.1122 16.875 20.8737 16.875 20.6251V13.1251C16.875 12.8764 16.9738 12.638 17.1496 12.4621C17.3254 12.2863 17.5639 12.1876 17.8125 12.1876C18.0611 12.1876 18.2996 12.2863 18.4754 12.4621C18.6512 12.638 18.75 12.8764 18.75 13.1251V20.6251Z" fill="#202020"/>
</g>
</svg>
