<svg width="18" height="18" viewBox="0 0 18 18" fill="none" xmlns="http://www.w3.org/2000/svg">
<g id="unlock 1" clip-path="url(#clip0_1325_5093)">
<g id="Vector">
<path d="M12.75 6.00004H5.25V5.25004C5.24977 4.4186 5.52587 3.61065 6.03489 2.95322C6.54391 2.2958 7.25698 1.82619 8.062 1.61821C8.86702 1.41024 9.71832 1.4757 10.4821 1.80431C11.2458 2.13291 11.8787 2.70603 12.2813 3.43354C12.3291 3.51967 12.3934 3.59554 12.4705 3.65682C12.5477 3.71809 12.6361 3.76358 12.7308 3.79067C12.8255 3.81776 12.9247 3.82593 13.0225 3.81471C13.1204 3.8035 13.2151 3.77311 13.3013 3.72529C13.3874 3.67748 13.4633 3.61316 13.5245 3.53602C13.5858 3.45888 13.6313 3.37043 13.6584 3.27572C13.6855 3.181 13.6936 3.08188 13.6824 2.984C13.6712 2.88613 13.6408 2.79142 13.593 2.70529C13.0292 1.68703 12.143 0.884983 11.0738 0.425229C10.0045 -0.0345254 8.81277 -0.125919 7.6859 0.165415C6.55903 0.45675 5.56092 1.11429 4.84847 2.03468C4.13602 2.95507 3.74961 4.08612 3.75 5.25004V6.31804C3.08202 6.60957 2.51347 7.08944 2.11387 7.69895C1.71428 8.30847 1.50096 9.02122 1.5 9.75004V14.25C1.50119 15.2442 1.89666 16.1974 2.59967 16.9004C3.30267 17.6034 4.2558 17.9989 5.25 18H12.75C13.7442 17.9989 14.6973 17.6034 15.4003 16.9004C16.1033 16.1974 16.4988 15.2442 16.5 14.25V9.75004C16.4988 8.75585 16.1033 7.80271 15.4003 7.09971C14.6973 6.3967 13.7442 6.00123 12.75 6.00004ZM15 14.25C15 14.8468 14.7629 15.4191 14.341 15.841C13.919 16.263 13.3467 16.5 12.75 16.5H5.25C4.65326 16.5 4.08097 16.263 3.65901 15.841C3.23705 15.4191 3 14.8468 3 14.25V9.75004C3 9.15331 3.23705 8.58101 3.65901 8.15905C4.08097 7.7371 4.65326 7.50004 5.25 7.50004H12.75C13.3467 7.50004 13.919 7.7371 14.341 8.15905C14.7629 8.58101 15 9.15331 15 9.75004V14.25Z" fill="#2D71AE"/>
<path d="M9 10.5C8.80109 10.5 8.61032 10.5791 8.46967 10.7197C8.32902 10.8604 8.25 11.0511 8.25 11.25V12.75C8.25 12.949 8.32902 13.1397 8.46967 13.2804C8.61032 13.421 8.80109 13.5 9 13.5C9.19891 13.5 9.38968 13.421 9.53033 13.2804C9.67098 13.1397 9.75 12.949 9.75 12.75V11.25C9.75 11.0511 9.67098 10.8604 9.53033 10.7197C9.38968 10.5791 9.19891 10.5 9 10.5Z" fill="#2D71AE"/>
</g>
</g>
<defs>
<clipPath id="clip0_1325_5093">
<rect width="18" height="18" fill="white"/>
</clipPath>
</defs>
</svg>
