<svg width="40" height="17" viewBox="0 0 40 17" fill="none" xmlns="http://www.w3.org/2000/svg">
<g id="Uzum" opacity="0.9" clip-path="url(#clip0_837_1473)">
<g id="Clip path group">
<mask id="mask0_837_1473" style="mask-type:luminance" maskUnits="userSpaceOnUse" x="0" y="0" width="40" height="17">
<g id="clippath">
<path id="Vector" d="M40 0.537109H0V16.4631H40V0.537109Z" fill="white"/>
</g>
</mask>
<g mask="url(#mask0_837_1473)">
<g id="Group">
<path id="Vector_2" fill-rule="evenodd" clip-rule="evenodd" d="M7.91097 16.1492C12.1985 16.1492 15.6735 12.6862 15.6735 8.41367C15.6735 4.14117 12.1985 0.670174 7.91097 0.669174C3.62596 0.669174 0.147461 4.13317 0.147461 8.41367C0.147461 12.6942 3.62696 16.1492 7.91097 16.1492ZM7.90997 3.32117C8.21197 3.32117 8.51046 3.33317 8.80097 3.35967V7.48918H7.02246V3.35967C7.31296 3.33317 7.61146 3.32117 7.90997 3.32117ZM10.928 5.26767C11.6215 5.39067 12.2835 5.56167 12.911 5.76617H12.912V8.75418C12.912 11.4977 10.6725 13.7392 7.91046 13.7392C5.14846 13.7392 2.91396 11.4982 2.91396 8.75418V5.76617C3.54146 5.56117 4.20346 5.39117 4.89696 5.26767V8.73518C4.89696 11.2317 5.96246 12.5432 7.91046 12.5432C9.85847 12.5432 10.928 11.2317 10.928 8.73518V5.26767ZM36.4945 4.56617C36.7545 4.13917 37.275 3.85617 37.9705 3.85617C39.1435 3.85617 39.71 4.60117 39.7125 5.52167V7.73268H38.617V5.67617C38.617 5.23717 38.368 4.84967 37.84 4.84967C37.312 4.84967 37.052 5.22267 37.052 5.66067V7.73268H35.956V5.66067C35.956 5.22267 35.6795 4.84967 35.1475 4.84967C34.6155 4.84967 34.386 5.23817 34.386 5.67617V7.73268H33.29V5.52067C33.29 4.60117 33.8915 3.85617 35.061 3.85617C35.659 3.85617 36.2295 4.13917 36.494 4.56617H36.4945ZM27.654 4.85367V3.92967H24.0995V4.85367H26.205L24.0145 6.80917V7.73317H27.787V6.80917H25.4675L27.6545 4.85367H27.654ZM31.3595 5.92117C31.3595 6.52667 31.018 6.80567 30.5125 6.80567C30.007 6.80567 29.674 6.52667 29.674 5.92117V3.92967H28.578V5.95967C28.578 7.28317 29.681 7.80318 30.516 7.80318C31.351 7.80318 32.454 7.28317 32.454 5.95967V3.92967H31.358V5.92117H31.359H31.3595ZM22.2 5.92117C22.2 6.52667 21.8585 6.80567 21.353 6.80567C20.8475 6.80567 20.5145 6.52667 20.5145 5.92117V3.92967H19.4185V5.95967C19.4185 7.28317 20.5215 7.80318 21.3565 7.80318C22.1915 7.80318 23.2945 7.28317 23.2945 5.95967V3.92967H22.1985V5.92117H22.1995H22.2ZM21.2715 13.4862C21.4395 13.5562 21.647 13.5907 21.8935 13.5907C22.14 13.5907 22.374 13.5477 22.596 13.4647C22.8175 13.3802 23.011 13.2572 23.1765 13.0972C23.343 12.9372 23.474 12.7397 23.5725 12.5047C23.671 12.2697 23.7195 12.0012 23.7195 11.7012C23.7195 11.4012 23.671 11.1327 23.5725 10.8977C23.474 10.6627 23.343 10.4652 23.1765 10.3052C23.011 10.1452 22.8175 10.0222 22.596 9.93768C22.3745 9.85218 22.1405 9.81017 21.894 9.81017C21.6475 9.81017 21.4485 9.83768 21.283 9.89268C21.117 9.94767 20.979 10.0102 20.868 10.0812C20.7375 10.1612 20.632 10.2492 20.551 10.3447H20.506V8.31118H19.4205V13.5842H20.506V12.9277H20.5585C20.634 13.0527 20.735 13.1627 20.8605 13.2592C20.965 13.3407 21.103 13.4162 21.271 13.4862H21.2715ZM22.327 12.3627C22.1435 12.5382 21.886 12.6262 21.5535 12.6262C21.221 12.6262 20.9645 12.5382 20.781 12.3627C20.5975 12.1872 20.5055 11.9657 20.5055 11.6997C20.5055 11.4337 20.601 11.2002 20.792 11.0292C20.983 10.8582 21.2365 10.7732 21.5535 10.7732C21.8705 10.7732 22.143 10.8612 22.327 11.0367C22.5105 11.2122 22.6025 11.4337 22.6025 11.6997C22.6025 11.9657 22.5105 12.1872 22.327 12.3627ZM29.697 9.81668H30.7835V10.4927H30.844C30.909 10.3652 31.002 10.2522 31.123 10.1547C31.224 10.0712 31.361 9.99318 31.5345 9.91968C31.708 9.84618 31.9305 9.80968 32.2025 9.80968C32.424 9.80968 32.6315 9.84068 32.8245 9.90268C33.0175 9.96418 33.1865 10.0617 33.3295 10.1947C33.473 10.3277 33.585 10.4957 33.6655 10.6982C33.7455 10.9002 33.786 11.1417 33.786 11.4227V13.5842H32.6995V11.7297C32.6995 11.4062 32.6115 11.1657 32.436 11.0087C32.2595 10.8517 32.028 10.7737 31.7415 10.7737C31.4245 10.7737 31.186 10.8637 31.025 11.0417C30.8645 11.2207 30.7835 11.4502 30.7835 11.7297V13.5832H29.697V9.81717V9.81668ZM35.7775 8.31018H34.691V13.5832H35.7775V11.7377L37.4675 13.5832H38.7495L36.9995 11.6472L38.6135 9.81668H37.3385L35.777 11.5792V8.31018H35.7775ZM28.636 12.2737V9.72017H27.5125L27.521 10.3412C27.2765 9.97668 26.847 9.64417 26.0845 9.64417C24.773 9.64417 24.0985 10.6627 24.0985 11.6842C24.0745 12.7187 24.837 13.7482 26.0285 13.7482C26.6585 13.7482 27.2365 13.4682 27.513 12.9747C27.625 13.2997 27.906 13.6562 28.492 13.6562H29.1425V12.7017H28.9615C28.733 12.7017 28.6365 12.6182 28.6365 12.2737H28.636ZM26.3215 12.7622C25.676 12.7622 25.1945 12.3177 25.1945 11.6922C25.1945 11.0667 25.676 10.6377 26.3215 10.6377C26.967 10.6377 27.469 11.0752 27.469 11.6922C27.469 12.3092 26.9875 12.7622 26.3215 12.7622Z" fill="#7000FF"/>
</g>
</g>
</g>
</g>
<defs>
<clipPath id="clip0_837_1473">
<rect width="40" height="16" fill="white" transform="translate(0 0.5)"/>
</clipPath>
</defs>
</svg>
