<svg width="152" height="206" viewBox="0 0 152 206" fill="none" xmlns="http://www.w3.org/2000/svg">
<path id="Vector" opacity="0.8" d="M84.6605 1.28252L12.5145 28.7267C3.40828 32.1907 -1.44583 43.385 1.69352 53.6803L45.1532 196.204C47.8759 205.132 53.2079 206.64 56.9463 205.218C59.6408 204.193 61.8892 201.638 63.6296 197.625L87.493 142.595L136.469 169.917C140.04 171.91 143.217 172.4 145.912 171.376L145.913 171.375C148.586 170.359 150.472 167.912 151.088 164.662C151.551 162.217 151.296 159.368 150.328 156.195L106.869 13.672C103.729 3.37666 93.7668 -2.18148 84.6605 1.28252Z" fill="url(#paint0_linear_352_4643)"/>
<defs>
<linearGradient id="paint0_linear_352_4643" x1="10.1372" y1="10.1794" x2="186.392" y2="214.069" gradientUnits="userSpaceOnUse">
<stop stop-color="#D7E7F8" stop-opacity="0.6"/>
<stop offset="1" stop-color="#2D71AE" stop-opacity="0"/>
</linearGradient>
</defs>
</svg>
