<svg width="209" height="209" viewBox="0 0 209 209" fill="none" xmlns="http://www.w3.org/2000/svg">
<path id="Star 1" d="M173.88 30.9219C176.535 29.4007 179.496 32.3623 177.975 35.0165L147.095 88.8947C146.186 90.48 146.894 92.5026 148.593 93.1756L206.328 116.046C209.173 117.173 208.704 121.335 205.68 121.8L144.303 131.25C142.497 131.528 141.357 133.342 141.89 135.09L160.007 194.489C160.899 197.415 157.353 199.643 155.104 197.57L109.448 155.475C108.104 154.236 105.975 154.476 104.941 155.983L69.7965 207.181C68.0652 209.704 64.1119 208.32 64.3308 205.269L68.7757 143.328C68.9065 141.506 67.3913 139.99 65.5687 140.121L3.62789 144.566C0.576473 144.785 -0.80685 140.832 1.71537 139.1L52.914 103.956C54.4205 102.922 54.6604 100.793 53.4218 99.4491L11.3272 53.7932C9.25346 51.544 11.4818 47.9977 14.408 48.8901L73.8067 67.0067C75.5545 67.5398 77.3689 66.3997 77.647 64.5937L87.0967 3.2168C87.5622 0.193158 91.7242 -0.275779 92.8509 2.56847L115.721 60.3038C116.394 62.0026 118.417 62.7104 120.002 61.8017L173.88 30.9219Z" fill="url(#paint0_linear_352_4640)"/>
<defs>
<linearGradient id="paint0_linear_352_4640" x1="233.982" y1="91.3753" x2="12.8578" y2="107.527" gradientUnits="userSpaceOnUse">
<stop stop-color="#D7E7F8" stop-opacity="0.8"/>
<stop offset="1" stop-color="#2D71AE" stop-opacity="0"/>
</linearGradient>
</defs>
</svg>
