<svg width="165" height="165" viewBox="0 0 165 165" fill="none" xmlns="http://www.w3.org/2000/svg">
<path id="Star 5" opacity="0.8" d="M140.097 2.24009C140.905 1.44817 142.2 2.3972 141.688 3.40662L104.181 77.3927C103.599 78.5398 103.814 79.9299 104.713 80.8486L162.761 140.104C163.553 140.913 162.604 142.208 161.595 141.696L87.6085 104.188C86.4615 103.607 85.0714 103.821 84.1527 104.721L24.897 162.769C24.0886 163.561 22.7936 162.612 23.3053 161.602L60.8129 87.6161C61.3944 86.4691 61.1801 85.079 60.2802 84.1603L2.2325 24.9046C1.44059 24.0962 2.38962 22.8012 3.39903 23.3129L77.3851 60.8205C78.5322 61.402 79.9223 61.1877 80.841 60.2878L140.097 2.24009Z" stroke="url(#paint0_linear_352_4642)" stroke-width="2"/>
<defs>
<linearGradient id="paint0_linear_352_4642" x1="-16.0964" y1="39.5052" x2="217.321" y2="82.1525" gradientUnits="userSpaceOnUse">
<stop stop-color="#D7E7F8" stop-opacity="0.8"/>
<stop offset="1" stop-color="#2D71AE" stop-opacity="0"/>
</linearGradient>
</defs>
</svg>
