<svg width="16" height="16" viewBox="0 0 16 16" fill="none" xmlns="http://www.w3.org/2000/svg">
<g id="Audio wave">
<g id="Subtract">
<path d="M6.66663 10.0323C7.06131 10.3009 7.52532 10.4442 8 10.4442C8.63652 10.4442 9.24697 10.1867 9.69706 9.72834C10.1471 9.26995 10.4 8.64825 10.4 8C10.4 7.51657 10.2592 7.04401 9.99553 6.64205C9.73181 6.2401 9.35698 5.92681 8.91844 5.74182C8.4799 5.55682 7.99734 5.50841 7.53178 5.60272C7.06623 5.69704 6.63859 5.92983 6.30294 6.27166C5.9673 6.61349 5.73872 7.04902 5.64612 7.52315C5.55351 7.99729 5.60104 8.48874 5.78269 8.93537C5.96434 9.382 6.27195 9.76374 6.66663 10.0323Z" fill="#A1A1A1"/>
<path fill-rule="evenodd" clip-rule="evenodd" d="M8 16C12.4183 16 16 12.4183 16 8C16 3.58172 12.4183 0 8 0C3.58172 0 0 3.58172 0 8C0 12.4183 3.58172 16 8 16ZM8 4.33333C9.16159 4.33333 10.2849 4.75653 11.1668 5.52643L14 8L11.1668 10.4736C10.2849 11.2435 9.16159 11.6667 8 11.6667C6.83841 11.6667 5.71514 11.2435 4.8332 10.4736L2 8L4.8332 5.52643C5.71514 4.75653 6.83841 4.33333 8 4.33333Z" fill="#A1A1A1"/>
</g>
</g>
</svg>
