<svg width="18" height="18" viewBox="0 0 18 18" fill="none" xmlns="http://www.w3.org/2000/svg">
<g id="Audio wave 3">
<g id="Vector">
<path d="M0 3.6C0 2.80471 0.64471 2.16 1.44 2.16C2.23529 2.16 2.88 2.80471 2.88 3.6V14.4C2.88 15.1953 2.23529 15.84 1.44 15.84C0.64471 15.84 0 15.1953 0 14.4V3.6Z" fill="#2D71AE"/>
<path d="M5.04 5.76C5.04 4.96471 5.68471 4.32 6.48 4.32C7.27529 4.32 7.92 4.96471 7.92 5.76V12.24C7.92 13.0353 7.27529 13.68 6.48 13.68C5.68471 13.68 5.04 13.0353 5.04 12.24V5.76Z" fill="#2D71AE"/>
<path d="M10.08 1.44C10.08 0.64471 10.7247 0 11.52 0C12.3153 0 12.96 0.64471 12.96 1.44V16.56C12.96 17.3553 12.3153 18 11.52 18C10.7247 18 10.08 17.3553 10.08 16.56V1.44Z" fill="#2D71AE"/>
<path d="M15.12 6.48C15.12 5.68471 15.7647 5.04 16.56 5.04C17.3553 5.04 18 5.68471 18 6.48V11.52C18 12.3153 17.3553 12.96 16.56 12.96C15.7647 12.96 15.12 12.3153 15.12 11.52V6.48Z" fill="#2D71AE"/>
</g>
</g>
</svg>
