<svg width="23" height="16" viewBox="0 0 23 16" fill="none" xmlns="http://www.w3.org/2000/svg">
<g id="YT" opacity="0.8" clip-path="url(#clip0_638_1788)">
<path id="Vector" d="M22.0887 2.28613L22.117 2.4706C21.9882 2.00118 21.7419 1.57232 21.4014 1.22452C21.0608 0.87672 20.6372 0.621458 20.1706 0.482836L20.1508 0.47813C18.3899 1.29026e-05 11.3038 1.30071e-05 11.3038 1.30071e-05C11.3038 1.30071e-05 4.23557 -0.00939885 2.45675 0.47813C1.98933 0.613401 1.56408 0.865493 1.22108 1.21063C0.878078 1.55577 0.628637 1.98259 0.496277 2.45083L0.491571 2.4706C-0.166311 5.90683 -0.171017 10.0358 0.520747 13.7148L0.491571 13.5285C0.62034 13.9979 0.866628 14.4268 1.20718 14.7746C1.54773 15.1224 1.97131 15.3776 2.43792 15.5162L2.45769 15.5209C4.21674 16 11.3047 16 11.3047 16C11.3047 16 18.372 16 20.1518 15.5209C20.6194 15.3859 21.0449 15.1339 21.3881 14.7887C21.7313 14.4436 21.9808 14.0166 22.1132 13.5482L22.1179 13.5285C22.4172 11.9304 22.5885 10.0913 22.5885 8.21271L22.5876 8.00471L22.5885 7.78824C22.5885 5.90871 22.4172 4.06966 22.0887 2.28613ZM9.04309 11.4362V4.57224L14.9405 8.00942L9.04309 11.4362Z" fill="#F9FFFD"/>
</g>
<defs>
<clipPath id="clip0_638_1788">
<rect width="22.7368" height="16" fill="white"/>
</clipPath>
</defs>
</svg>
